<?xml version="1.0" encoding="UTF-8"?>
<svg version="1.1" xmlns="http://www.w3.org/2000/svg" width="679" height="483">
<path d="M0 0 C5.19236795 0.01932772 10.38452245 0.02049612 15.57691473 0.01169026 C98.06663525 -0.12402997 193.58166683 -0.03229959 257.38355535 60.45773518 C258.82021551 61.79771565 258.82021551 61.79771565 260.2858991 63.16476643 C288.41939819 89.93211956 305.44316168 129.43883849 306.66376776 168.16699421 C306.80112103 175.21528946 306.80675039 182.26331281 306.78653187 189.31262529 C306.77879078 192.87108756 306.78601985 196.42952986 306.79069036 199.98799336 C306.7961061 205.95605921 306.78906693 211.92401268 306.77466863 217.89206135 C306.75834269 224.73704083 306.76364719 231.58175206 306.78014785 238.42672509 C306.79387446 244.36455409 306.79562871 250.30230357 306.78783184 256.24014336 C306.78321694 259.75997459 306.78235555 263.27968085 306.79244131 266.79950345 C306.86162486 294.80426614 303.70686656 320.08203729 291.38355535 345.45773518 C291.08610418 346.08244709 290.78865301 346.70715901 290.48218817 347.35080159 C274.89061686 379.73913052 246.60573766 404.7410105 214.22144598 419.61252034 C212.51099539 420.39912766 210.81382428 421.21443569 209.11793035 422.03195393 C201.79048527 425.40364062 194.29267722 427.84560329 186.57105535 430.14523518 C185.62359442 430.43084309 184.67613348 430.716451 183.6999616 431.0107137 C167.1721029 435.76497898 151.59752484 436.94263281 134.44581121 436.84884846 C130.95525975 436.83277756 127.46586857 436.84877069 123.97535223 436.86789143 C107.48807964 436.884121 91.94700401 435.50907482 76.07105535 430.83273518 C74.77385565 430.45314656 74.77385565 430.45314656 73.45044988 430.06588948 C49.73741909 422.84748359 28.69104714 410.84903316 9.38355535 395.45773518 C8.41160223 394.68687581 7.4396491 393.91601643 6.43824285 393.12179768 C3.72578686 390.931272 1.04867055 388.70560386 -1.61644465 386.45773518 C-2.15478937 386.00430745 -2.6931341 385.55087971 -3.2477923 385.08371174 C-10.6355435 378.84775824 -17.85963707 372.46335838 -24.96019465 365.90304768 C-28.45533738 362.6854604 -32.02007815 359.5611024 -35.61644465 356.45773518 C-36.60773371 355.58761799 -37.59902277 354.71750081 -38.6203509 353.82101643 C-89.59708217 309.29807005 -150.31794387 286.9400996 -217.32079035 281.38839924 C-249.74387526 278.69502483 -285.84238157 274.87876925 -309.6125384 249.86007893 C-321.46228536 235.65424192 -327.75592491 219.69797231 -327.77757746 201.19235432 C-327.78254236 200.1719405 -327.78750727 199.15152668 -327.79262263 198.10019124 C-327.80720086 194.73108436 -327.8140409 191.36202465 -327.81956965 187.99289143 C-327.82532695 185.63843485 -327.83108461 183.28397826 -327.8368426 180.92952168 C-327.84734186 175.99092592 -327.85319081 171.05234638 -327.85667902 166.11374104 C-327.86214555 159.81974379 -327.88613883 153.52596484 -327.91465098 147.23203576 C-327.93338372 142.3649302 -327.93848871 137.49787597 -327.9400149 132.63073742 C-327.94302064 130.31256562 -327.95097787 127.99439426 -327.96420008 125.67625821 C-328.11713384 96.78954179 -322.24651406 73.03879334 -301.92894465 51.39523518 C-283.39123844 33.53748345 -257.97604754 24.34783621 -233.49144465 18.27023518 C-232.14638849 17.93137288 -232.14638849 17.93137288 -230.77415949 17.58566487 C-209.11167363 12.49166255 -186.82043762 10.45977691 -164.70702082 8.38498127 C-161.74666022 8.10714988 -158.78709371 7.82266491 -155.82811457 7.53048909 C-145.40624836 6.50180196 -134.97853856 5.56592203 -124.54182154 4.70070469 C-122.53032815 4.5336385 -120.51896675 4.36497799 -118.50771815 4.19499028 C-78.93788754 0.85983441 -39.68065402 -0.1588672 0 0 Z M-93.08226496 24.1694051 C-97.05766446 24.49373135 -101.03414069 24.8020195 -105.0109759 25.10812581 C-199.54034872 27.50809802 -199.54034872 27.50809802 -282.61644465 64.45773518 C-283.5291009 65.14029377 -283.5291009 65.14029377 -284.46019465 65.83664143 C-296.8766361 75.29006844 -303.34500388 91.32008908 -306.17113215 106.14914143 C-307.73502048 117.7685574 -303.49993783 128.65214458 -296.99144465 138.20773518 C-285.64945478 152.73899966 -270.51166757 159.12672338 -253.0031634 162.73117268 C-249.61644465 163.45773518 -249.61644465 163.45773518 -247.61644465 164.45773518 C-244.8184414 164.80270219 -242.03191065 165.09903272 -239.22581965 165.36007893 C-237.9542174 165.48286213 -237.9542174 165.48286213 -236.65692621 165.60812581 C-234.83851989 165.78308718 -233.01993387 165.95618882 -231.20119196 166.12762654 C-228.3579609 166.39603607 -225.51536687 166.67048974 -222.67284113 166.94626057 C-211.3018009 168.04432047 -211.3018009 168.04432047 -199.9172259 168.98898518 C-136.52667329 173.8202014 -76.02815434 200.71448595 -28.2243548 242.07199299 C-26.54405098 243.52012608 -24.8530392 244.95489949 -23.1594134 246.38742268 C-17.2995264 251.3553766 -11.54302879 256.40041074 -5.92894465 261.64523518 C-1.23724995 266.02611917 3.57760533 270.17347867 8.5905866 274.18820393 C11.09502157 276.22327626 13.53347432 278.31913667 15.96485418 280.4404012 C38.14278804 299.66532243 63.95587853 313.24975624 92.38355535 320.45773518 C93.43760565 320.7289217 93.43760565 320.7289217 94.51294988 321.00558674 C106.30966034 323.85903486 118.38072513 323.76516442 130.44605535 323.83273518 C131.24622076 323.84077168 132.04638616 323.84880818 132.87079901 323.85708821 C144.65815562 323.94674082 155.83370324 322.80702409 167.38355535 320.45773518 C168.33609197 320.26437581 169.28862859 320.07101643 170.27002996 319.87179768 C172.47074793 319.38725264 174.64460059 318.85345302 176.82105535 318.27023518 C177.59417059 318.06374348 178.36728582 317.85725178 179.16382879 317.64450276 C204.83046157 310.44033383 227.29866795 296.84405423 246.38355535 278.45773518 C247.08867254 277.81578206 247.79378973 277.17382893 248.5202741 276.51242268 C271.37072589 255.09881472 284.112105 221.53848298 285.50904363 190.68625081 C286.84539813 149.07794708 274.85199865 111.29641509 246.5358991 80.28586018 C234.99024576 68.0764835 221.21412757 59.16963274 206.38355535 51.45773518 C205.45446356 50.96176838 205.45446356 50.96176838 204.50660223 50.45578206 C172.08008188 33.30484648 131.31652424 24.03265628 94.69605535 24.39523518 C93.49593817 24.40425862 92.29582098 24.41328206 91.0593366 24.42257893 C90.17632879 24.43418049 89.29332098 24.44578206 88.38355535 24.45773518 C88.38355535 23.79773518 88.38355535 23.13773518 88.38355535 22.45773518 C61.4915234 21.36671595 34.60754064 21.21102953 7.69605535 21.20773518 C6.58771463 21.20744061 5.47937391 21.20714604 4.33744711 21.20684254 C-28.22669699 21.20544868 -60.61132688 21.48304851 -93.08226496 24.1694051 Z M-306.61644465 161.45773518 C-306.71887764 167.77066186 -306.78833748 174.08336994 -306.83617121 180.39694417 C-306.85613734 182.53927823 -306.88332003 184.68155886 -306.91820246 186.82370198 C-307.17965972 203.30704419 -306.46375729 216.56128425 -296.61644465 230.45773518 C-296.13820246 231.14351643 -295.65996027 231.82929768 -295.1672259 232.53586018 C-282.21753566 249.10624467 -259.3122572 254.4543416 -239.61644465 257.45773518 C-232.03211741 258.37489515 -224.41457451 258.95089103 -216.79994684 259.55212605 C-152.01362613 264.75224668 -90.97203325 283.4359762 -39.61644465 324.45773518 C-38.80457697 325.1018636 -38.80457697 325.1018636 -37.97630793 325.75900471 C-32.11221538 330.42263401 -26.47987877 335.30480458 -20.9406634 340.34836018 C-18.8960213 342.20400175 -16.82860316 344.02529895 -14.74144465 345.83273518 C-11.89418235 348.30761911 -9.10986238 350.84199077 -6.34349543 353.40695393 C-1.24793649 358.12596189 3.93462364 362.6650587 9.35230535 367.01632893 C11.62098339 368.84355029 13.86675937 370.68846063 16.10230535 372.55539143 C55.54605715 405.35496551 100.39009916 419.48737833 151.63355535 414.99679768 C188.27216036 410.93262412 221.05511144 394.8757903 247.38355535 369.45773518 C248.03711004 368.86734456 248.69066473 368.27695393 249.3640241 367.66867268 C271.3549603 347.29702157 283.13621199 314.75963515 285.38355535 285.45773518 C285.57592349 279.45657979 285.50730462 273.45957478 285.38355535 267.45773518 C281.62897808 268.93980516 280.11668661 270.89721603 277.88355535 274.20773518 C262.61592251 295.8203583 243.57522211 311.091322 220.38355535 323.45773518 C219.38968817 324.00171956 218.39582098 324.54570393 217.3718366 325.10617268 C202.33235402 333.03493756 185.96993769 337.99206965 169.38355535 341.45773518 C168.23089178 341.70547688 168.23089178 341.70547688 167.05494207 341.95822346 C141.21264137 347.26272458 111.9844521 346.36877026 86.38355535 340.45773518 C85.02520574 340.14425129 85.02520574 340.14425129 83.63941473 339.8244344 C40.56478667 329.45950497 6.88127804 302.29704361 -24.9953509 272.86789143 C-28.48002154 269.66365628 -32.0327361 266.55017964 -35.61644465 263.45773518 C-36.60773371 262.58761799 -37.59902277 261.71750081 -38.6203509 260.82101643 C-57.84155424 244.02943597 -78.34931555 229.21855224 -101.56908137 218.41574299 C-103.72262958 217.40804884 -105.85809868 216.36668715 -107.9953509 215.32492268 C-141.46504672 199.32530611 -176.9925246 191.86648515 -213.7219134 188.53195393 C-246.92793388 185.51481378 -274.22506583 181.74432643 -302.84886652 163.81735432 C-303.55781061 163.37355931 -304.26675471 162.92976429 -304.99718195 162.47252095 C-305.53153864 162.13764164 -306.06589533 161.80276234 -306.61644465 161.45773518 Z " fill="#000000" transform="translate(344.61644464731216,29.542264819145203)"/>
<path d="M0 0 C3.36283953 0.00532938 6.72554357 0.00003903 10.08837891 -0.00634766 C29.49016227 -0.01407448 48.88421604 0.23522517 68.13916016 2.81787109 C69.44006592 2.99012207 70.74097168 3.16237305 72.08129883 3.33984375 C107.85860304 8.26166722 144.36298666 19.43135647 170.76416016 45.13037109 C171.82376953 46.11457031 171.82376953 46.11457031 172.90478516 47.11865234 C192.18889942 65.48272299 201.41171213 93.50615149 202.11767578 119.65454102 C202.29853554 141.02271094 197.50916933 164.92023911 182.57666016 181.06787109 C174.04326093 189.01578838 164.27328185 192.5065931 152.78369141 192.33740234 C135.15786396 191.12890447 122.17906085 181.22138674 110.58837891 168.79833984 C103.16279299 160.06323176 97.74611314 149.68258227 92.32666016 139.63037109 C75.48732433 108.46457884 54.18047537 81.59271061 19.24975586 71.0234375 C-1.16190243 65.31172944 -22.80486901 64.79119443 -43.86816406 63.86401367 C-51.58827296 63.51451065 -59.26195104 63.00788995 -66.94677734 62.17724609 C-67.68102432 62.09969589 -68.4152713 62.02214569 -69.17176819 61.94224548 C-79.69449372 60.73629918 -88.67594675 57.78995509 -96.23583984 50.13037109 C-100.46965749 43.38272422 -101.48003197 35.69494689 -99.73974609 27.91162109 C-96.63584955 18.79282898 -90.58131203 14.35093224 -82.23583984 10.13037109 C-71.51245577 5.34832144 -60.02069671 3.32999034 -48.42333984 2.00537109 C-47.76197021 1.9297998 -47.10060059 1.85422852 -46.41918945 1.77636719 C-30.96464741 0.16754046 -15.52446768 -0.02915182 0 0 Z M-77.23583984 33.13037109 C-76.91542587 35.73317677 -76.91542587 35.73317677 -76.23583984 38.13037109 C-67.63580577 40.81788174 -59.06340375 41.32255809 -50.10693359 41.77880859 C-47.91355529 41.89825322 -45.72019654 42.01805719 -43.52685547 42.13818359 C-40.12509924 42.32173421 -36.72328133 42.50281055 -33.32104492 42.67724609 C-5.10703805 44.13548417 23.17726193 46.19134013 48.76416016 59.13037109 C49.81990234 59.66404297 50.87564453 60.19771484 51.96337891 60.74755859 C81.2673412 76.75939682 98.80294042 105.93019138 114.51416016 134.19287109 C122.97282009 149.34070701 132.23304437 164.7076107 149.76416016 170.13037109 C155.20773236 171.18526452 159.34345128 170.86622274 164.01416016 167.75537109 C173.48362115 159.54342404 178.3035118 145.29250437 179.76416016 133.13037109 C181.31989357 107.96425673 176.58268782 84.58654307 159.76416016 65.13037109 C133.45057748 35.62586187 89.61427778 25.93602714 51.76416016 23.13037109 C44.81935798 22.79337407 37.86795289 22.7999743 30.91650391 22.79443359 C28.96570243 22.78797557 27.01490184 22.78124523 25.06410217 22.77426147 C21.00259158 22.76239495 16.94116533 22.7585695 12.87963867 22.75976562 C8.77333921 22.75992791 4.66748712 22.74606257 0.5612793 22.71875 C-40.66296432 19.79360049 -40.66296432 19.79360049 -77.23583984 33.13037109 Z " fill="#000000" transform="translate(403.23583984375,75.86962890625)"/>
<path d="M0 0 C3.78168731 0.06277669 7.56323343 0.10433198 11.34521484 0.14501953 C70.27656425 0.98644605 70.27656425 0.98644605 90.86474609 20.59423828 C104.70096552 35.53525089 111.0204471 53.04169171 111.12255859 73.19189453 C111.12825867 74.08102036 111.13395874 74.97014618 111.13983154 75.88621521 C111.14923965 77.76291735 111.15579877 79.63963569 111.15966797 81.51635742 C111.16932178 84.34275328 111.20036394 87.16840483 111.23193359 89.99462891 C111.32733243 106.06809423 110.27677569 122.0287829 99.35693359 134.81298828 C98.55255859 135.47298828 97.74818359 136.13298828 96.91943359 136.81298828 C96.19755859 137.49361328 95.47568359 138.17423828 94.73193359 138.87548828 C84.67194217 145.8057046 73.68667452 146.22620988 61.86425781 144.515625 C39.48502362 140.34930804 22.27354163 125.48137696 6.85693359 109.68798828 C2.20969415 104.98337552 -2.90098509 100.91292072 -8.08056641 96.81298828 C-9.05767578 96.01892578 -10.03478516 95.22486328 -11.04150391 94.40673828 C-26.32436166 82.24204546 -43.2920468 73.0847983 -61.06494141 65.12158203 C-62.64734619 64.40905273 -62.64734619 64.40905273 -64.26171875 63.68212891 C-66.33026127 62.75490575 -68.40327835 61.83757522 -70.48144531 60.93212891 C-80.79659069 56.32626462 -91.47941232 50.50636291 -96.45556641 39.87548828 C-97.88428313 32.87477634 -97.4320193 28.15680984 -94.08056641 21.81298828 C-84.9136572 9.146348 -67.77584368 4.49474048 -53.08056641 1.81298828 C-35.47806427 -0.59531718 -17.72613942 -0.30913691 0 0 Z M-73.08056641 31.81298828 C-72.82064706 33.76166058 -72.82064706 33.76166058 -72.08056641 35.81298828 C-69.59818196 37.26282263 -67.26588138 38.42780027 -64.64306641 39.56298828 C-63.88461426 39.90587891 -63.12616211 40.24876953 -62.34472656 40.60205078 C-59.93034315 41.68899439 -57.50727857 42.75388267 -55.08056641 43.81298828 C-23.37835324 57.68395453 4.18191957 75.33693974 28.29443359 100.37548828 C40.30087692 112.46944213 54.35954359 122.76596467 71.91943359 123.12548828 C73.71380859 123.1815625 73.71380859 123.1815625 75.54443359 123.23876953 C79.56538475 122.73149676 81.08489759 121.65255898 83.91943359 118.81298828 C90.89678696 109.34824006 90.2600995 96.14855395 90.23193359 85.00048828 C90.24804688 83.7365625 90.26416016 82.47263672 90.28076172 81.17041016 C90.28911235 64.86162513 87.06824818 49.00293786 75.60693359 36.75048828 C62.49508928 24.9498284 42.14610216 22.70335096 25.02905273 22.63598633 C24.28465942 22.62941513 23.54026611 22.62284393 22.77331543 22.61607361 C20.3337388 22.5965262 17.89422334 22.58471614 15.45458984 22.57470703 C14.61157255 22.5706315 13.76855526 22.56655598 12.89999199 22.56235695 C8.43243539 22.54156903 3.96490879 22.52723941 -0.50268555 22.51782227 C-5.0679687 22.50680868 -9.63275768 22.47244653 -14.19786739 22.43265057 C-17.75084708 22.40623471 -21.30371372 22.3981083 -24.85678291 22.39454079 C-26.53695554 22.38973433 -28.21712523 22.37829534 -29.89719963 22.35950279 C-45.09550152 22.20014415 -59.76770897 23.83181576 -73.08056641 31.81298828 Z " fill="#000000" transform="translate(336.08056640625,154.18701171875)"/>
<path d="M0 0 C6.83369465 6.15475307 10.69705676 14.87158221 11.28222656 24.02416992 C11.32804875 26.91336521 11.35634185 29.80187852 11.37109375 32.69140625 C11.39171875 33.68205078 11.41234375 34.67269531 11.43359375 35.69335938 C11.48876411 46.21020906 9.18578863 55.48569427 2.12109375 63.50390625 C-9.77026694 74.49706892 -22.65535238 76.28414055 -38.234375 75.82421875 C-57.26695018 74.92115408 -80.33334157 71.20250368 -93.87890625 56.56640625 C-100.52637811 48.2327464 -102.80411243 40.10412565 -101.87890625 29.50390625 C-99.33237215 19.65526232 -91.96125964 12.60552353 -83.70703125 7.15625 C-61.06249348 -6.07391502 -22.4930447 -17.91026221 0 0 Z M-77.87890625 30.50390625 C-80.12563556 33.29324922 -80.12563556 33.29324922 -79.94140625 36.31640625 C-78.10232526 41.83364921 -74.27249727 44.2504577 -69.23828125 46.88671875 C-57.65014193 52.06110181 -46.50752089 53.76991948 -33.94140625 53.94140625 C-32.46643677 53.97488159 -32.46643677 53.97488159 -30.96166992 54.0090332 C-23.85209858 53.98657873 -19.48944088 52.81491222 -14.13671875 47.90625 C-8.91850107 41.15855473 -9.36542612 34.78377331 -9.87890625 26.50390625 C-10.90532959 21.56047033 -12.72190809 17.49335246 -16.87890625 14.50390625 C-20.30049262 13.89072154 -23.66134837 13.93650675 -27.12890625 14.00390625 C-28.60629272 14.02203369 -28.60629272 14.02203369 -30.11352539 14.04052734 C-45.90912609 14.46420842 -66.22431956 19.04195736 -77.87890625 30.50390625 Z " fill="#000000" transform="translate(183.87890625,96.49609375)"/>
<path d="M0 0 C6.01878889 2.61192725 8.68455138 7.60478177 12 13 C20.24040642 26.20311616 30.2888921 36.76009099 43.98901367 44.16064453 C53.42708623 49.28125869 53.42708623 49.28125869 55 54 C55.63184877 59.37071452 54.73791925 62.68561725 51.71484375 67.0234375 C40.95806117 79.42191583 23.48289837 82.36932276 8.1875 85.4375 C7.18694077 85.64416794 7.18694077 85.64416794 6.16616821 85.85501099 C-13.14525227 89.79072457 -13.14525227 89.79072457 -21.875 85.3125 C-29.53465544 79.64435498 -29.53465544 79.64435498 -30.33764648 75.08129883 C-30.44081107 68.52921785 -28.62329111 63.37435652 -26.125 57.375 C-20.11453174 42.50811739 -18.73221863 29.16146691 -19.16015625 13.2421875 C-18.9208799 8.39830036 -17.72266093 5.83383953 -14.5625 2.1875 C-10.21898551 -1.18486015 -5.21730831 -0.81106138 0 0 Z M3 40 C0.77492393 45.61050699 -0.87659624 51.11368507 -2.1875 57 C-2.36474609 57.77472656 -2.54199219 58.54945313 -2.72460938 59.34765625 C-3.1546759 61.23065021 -3.578055 63.11516954 -4 65 C4.49307438 63.8356269 12.72342182 62.23691302 21 60 C21.31529819 56.97979704 21.31529819 56.97979704 19.45532227 55.09887695 C18.74947998 54.40238037 18.0436377 53.70588379 17.31640625 52.98828125 C16.55392578 52.23095703 15.79144531 51.47363281 15.00585938 50.69335938 C14.19955078 49.90767578 13.39324219 49.12199219 12.5625 48.3125 C11.76005859 47.51521484 10.95761719 46.71792969 10.13085938 45.89648438 C6.98514025 42.11198574 6.98514025 42.11198574 3 40 Z " fill="#000000" transform="translate(484,234)"/>
</svg>
