<?xml version="1.0" encoding="UTF-8"?>
<svg version="1.1" xmlns="http://www.w3.org/2000/svg" width="1760" height="1960">
<path d="M0 0 C9.12044859 3.12940352 17.796659 7.26981956 26.50146484 11.38745117 C28.35633624 12.2577019 30.21205577 13.1261274 32.06782532 13.99446106 C40.7991828 18.08046325 49.51648808 22.19601904 58.23217773 26.31530762 C61.94096053 28.06755287 65.65095143 29.81723582 69.36083984 31.56713867 C85.54660539 39.20315437 101.72339025 46.85805569 117.89587402 54.52215576 C130.16865212 60.33809693 142.44692169 66.14229638 154.72894287 71.93869019 C167.169826 77.81030602 179.60284928 83.69838482 192.03375244 89.59109497 C203.13908049 94.85477381 214.25364496 100.0983473 225.37646484 105.32495117 C237.68224929 111.10786414 249.97144223 116.9250374 262.25146484 122.76245117 C263.50648804 123.35902527 263.50648804 123.35902527 264.78686523 123.96765137 C268.17109806 125.57639144 271.55531629 127.18516221 274.93951416 128.79397583 C283.91553041 133.06056215 292.89503545 137.31977272 301.87646484 141.57495117 C303.05689362 142.13422806 303.05689362 142.13422806 304.26116943 142.70480347 C315.98339265 148.25763358 327.71716449 153.78555904 339.45635986 159.30239868 C352.76700507 165.55902878 366.05395207 171.8650246 379.33691406 178.18017578 C381.03238564 178.98625449 382.7278609 179.79232546 384.42333984 180.59838867 C385.26265045 180.99741898 386.10196106 181.39644928 386.96670532 181.80757141 C395.80740989 186.00976883 404.65420627 190.19907488 413.50146484 194.38745117 C427.34683756 200.94244051 441.18603723 207.51032139 455.02197266 214.08520508 C466.3943495 219.48917864 477.77008504 224.88598396 489.1499939 230.27407837 C503.16573231 236.91024029 517.17983573 243.54984646 531.18896484 250.19995117 C532.03446899 250.60127258 532.87997314 251.00259399 533.75109863 251.41607666 C545.19409157 256.84900639 556.61456099 262.32569093 568.01733398 267.8425293 C574.26342544 270.85562368 580.53685759 273.79860634 586.83959961 276.69116211 C603.52903123 284.35220997 620.0041351 292.43547102 636.47851562 300.546875 C649.27572526 306.84560679 662.11254992 313.05323061 674.98867798 319.18896484 C696.67227119 329.53106364 718.20636269 340.17787615 739.70476151 350.89848709 C741.53868648 351.81235465 743.37334187 352.72473905 745.20822144 353.63668823 C756.46363209 359.235227 767.71837127 364.83568068 778.75146484 370.86401367 C779.44857071 371.23912582 780.14567657 371.61423798 780.86390686 372.00071716 C787.67605965 375.7921307 793.08162919 380.8193807 798.50146484 386.38745117 C799.03587787 386.76702878 799.57029089 387.14660639 800.12089825 387.53768635 C802.33424468 390.50325887 801.90981327 393.77422281 801.87568665 397.3313446 C801.87966105 398.15001898 801.88363546 398.96869336 801.8877303 399.81217605 C801.89738375 402.56620217 801.88551593 405.31971844 801.8737793 408.07373047 C801.87620665 410.04506116 801.87992542 412.01639062 801.88484192 413.98771667 C801.89427514 419.35681311 801.88479815 424.72572794 801.87150979 430.09481025 C801.86019116 435.72904471 801.86430398 441.36327025 801.86625671 446.99751282 C801.86714108 456.4829097 801.8560422 465.96823534 801.83764648 475.45361328 C801.81660466 486.36465524 801.81294077 497.27559186 801.81920844 508.18664998 C801.82494545 518.71847508 801.8191976 529.25026367 801.8080349 539.78208351 C801.80343275 544.24194844 801.80249598 548.7017907 801.80462074 553.16165733 C801.82449843 624.48892043 801.82449843 624.48892043 789.78662109 638.36401367 C780.35893239 647.41300029 767.39852758 651.20231065 754.68896484 652.26245117 C746.42304041 653.07920223 739.33190034 654.32310278 732.68896484 659.63745117 C721.34722397 673.8956397 721.17718385 689.48250077 722.85302734 707.07885742 C723.75247587 712.68135461 724.95752813 717.37033717 729.59521484 721.04760742 C740.57519729 727.44665563 750.38937018 729.96722018 763.00219727 731.08544922 C774.40039348 732.26597323 781.85276224 736.99663192 789.87646484 744.94995117 C790.56095703 745.60930664 791.24544922 746.26866211 791.95068359 746.94799805 C793.81430785 748.74829526 795.66276985 750.56173341 797.50146484 752.38745117 C798.18764159 752.92692967 798.87381833 753.46640817 799.58078831 754.0222345 C802.1923825 757.23828156 802.05280878 760.0173689 801.99644947 763.98262691 C802.00382193 765.14149538 802.00382193 765.14149538 802.01134333 766.32377532 C802.02298969 768.92841964 802.0059651 771.53209806 801.98921204 774.13670349 C801.99167121 776.0168988 801.99588453 777.89709249 802.00170678 779.77728039 C802.01262402 784.95709621 801.99849117 790.13659191 801.98038638 795.31637657 C801.96520511 800.89905874 801.97304002 806.48171345 801.97807312 812.06440735 C801.98431149 823.0131606 801.96927381 833.96178793 801.9473475 844.91051697 C801.92266586 857.67703876 801.91974274 870.44353743 801.91794374 883.21007956 C801.91406252 906.01655083 801.89160349 928.82295222 801.8581543 951.62939453 C801.82577866 973.71500875 801.80444329 995.80059353 801.79663086 1017.88623047 C801.79638782 1018.56476125 801.79614478 1019.24329203 801.79589437 1019.94238434 C801.79467215 1023.36046871 801.7934688 1026.77855308 801.79227258 1030.19663746 C801.79203631 1030.8713135 801.79180004 1031.54598954 801.79155661 1032.24111031 C801.79108243 1033.60172632 801.79061227 1034.96234234 801.79014615 1036.32295836 C801.78219911 1059.36518853 801.76472277 1082.40741223 801.74580741 1105.44963574 C801.74167565 1110.53021387 801.73795158 1115.61079204 801.73458505 1120.69137073 C801.72561299 1134.06494532 801.71368352 1147.43850575 801.69301901 1160.81206798 C801.68450759 1166.33859173 801.67737486 1171.86510607 801.67450333 1177.39163589 C801.61492012 1280.81829838 801.61492012 1280.81829838 790.25512695 1292.77490234 C784.24662072 1298.29991747 776.67343413 1301.17779794 769.18896484 1304.13745117 C768.03074219 1304.60223877 766.87251953 1305.06702637 765.67919922 1305.54589844 C762.35782678 1306.87727335 759.03200301 1308.19718979 755.70501709 1309.51446533 C753.42242984 1310.41876263 751.14080304 1311.32544841 748.859375 1312.23266602 C709.58524736 1327.84539833 670.20934608 1343.20229033 630.84985352 1358.59814453 C616.56394088 1364.18664231 602.28209759 1369.78547676 588.00146484 1375.38745117 C566.06257974 1383.99339568 544.11806569 1392.58487967 522.17089844 1401.16967773 C513.57411449 1404.53245173 504.97782974 1407.8965015 496.38150024 1411.26043701 C491.58817489 1413.13615894 486.79481831 1415.01180108 482.00146484 1416.88745117 C480.08479803 1417.63745079 478.16813136 1418.38745079 476.25146484 1419.13745117 C418.75146421 1441.63745142 418.75146421 1441.63745142 415.87654114 1442.76242065 C413.95961956 1443.51252085 412.04269858 1444.26262257 410.1257782 1445.01272583 C405.33801663 1446.88620548 400.55024467 1448.75965858 395.76245117 1450.63305664 C387.09083362 1454.02617202 378.41929497 1457.41948837 369.74813843 1460.81378174 C349.66559919 1468.67500231 329.5809031 1476.53058843 309.48886108 1484.36749268 C295.82273784 1489.69814769 282.161153 1495.04032952 268.50146484 1500.38745117 C248.85472981 1508.0780079 229.20184746 1515.75270549 209.54589844 1523.41967773 C201.88657574 1526.40735022 194.22781344 1529.39645874 186.56900024 1532.38543701 C182.29651058 1534.0528318 178.02398597 1535.72013703 173.75146484 1537.38745117 C172.04313134 1538.05411741 170.33479801 1538.72078407 168.62646484 1539.38745117 C117.37646531 1559.38745099 117.37646531 1559.38745099 114.81384277 1560.38749695 C113.10591466 1561.05400672 111.39798823 1561.7205208 109.69006348 1562.38703918 C105.41304405 1564.05614168 101.13599525 1565.72516881 96.85888672 1567.39404297 C89.2451593 1570.36490639 81.63161138 1573.3362239 74.01921082 1576.31048584 C53.75648755 1584.22731604 33.48190075 1592.11274943 13.19604492 1599.97012329 C-1.71388453 1605.7461325 -16.61125813 1611.55332146 -31.49853516 1617.38745117 C-73.27342351 1633.75558842 -115.13496803 1649.90109327 -156.99938965 1666.03857422 C-160.42659994 1667.35972104 -163.85368769 1668.68118531 -167.28076172 1670.00268555 C-198.98404752 1682.22591909 -230.71532384 1694.37346297 -262.49853516 1706.38745117 C-264.2019104 1707.0316098 -264.2019104 1707.0316098 -265.93969727 1707.68878174 C-291.17124089 1717.22831549 -316.41398771 1726.73332362 -341.81103516 1735.82495117 C-342.63974121 1736.12260376 -343.46844727 1736.42025635 -344.32226562 1736.72692871 C-353.09834227 1739.87356171 -361.90670536 1742.89651919 -370.78759766 1745.73510742 C-371.57109085 1745.98771835 -372.35458405 1746.24032928 -373.16181946 1746.50059509 C-383.11110293 1749.63510449 -393.15775777 1751.00890135 -402.84228516 1746.23120117 C-412.03679028 1740.56335555 -419.87422162 1731.60663902 -423.49853516 1721.38745117 C-424.36063509 1717.01238492 -424.8634476 1712.59401242 -425.39526367 1708.16894531 C-426.73707992 1697.45647519 -429.86888707 1687.45524339 -438.49853516 1680.38745117 C-450.13696893 1672.92819748 -461.94721881 1671.10168697 -475.49853516 1673.38745117 C-484.54878663 1675.88752064 -492.37141241 1679.0164932 -497.21337891 1687.33276367 C-503.1033802 1698.83558972 -504.6581663 1711.07152723 -501.12353516 1723.69995117 C-498.66194686 1730.68337013 -495.32284748 1737.34366123 -492.02832031 1743.96679688 C-486.51949624 1755.09203109 -484.60056389 1766.1258319 -487.11572266 1778.39916992 C-490.47312563 1787.86229246 -496.73989329 1793.87593303 -505.66259766 1798.17260742 C-506.71143631 1798.6864222 -506.71143631 1798.6864222 -507.78146362 1799.21061707 C-515.93880686 1803.15890858 -524.26951111 1806.69300691 -532.62353516 1810.19995117 C-534.35067541 1810.92915011 -536.07772374 1811.65856678 -537.8046875 1812.38818359 C-551.22136732 1818.04689282 -564.66855306 1823.63303285 -578.12353516 1829.19995117 C-579.02622131 1829.57374908 -579.92890747 1829.947547 -580.85894775 1830.33267212 C-595.36312884 1836.33325544 -609.92790016 1842.17922671 -624.50680542 1847.99524593 C-631.24075291 1850.6822076 -637.97003073 1853.38077915 -644.6992054 1856.07966614 C-698.16690502 1877.52131937 -751.74274462 1898.67687606 -805.49853516 1919.38745117 C-806.39946899 1919.73467224 -807.30040283 1920.08189331 -808.2286377 1920.43963623 C-830.02844718 1928.83759758 -851.89122388 1937.05781267 -873.81103516 1945.13745117 C-875.38075073 1945.71766525 -875.38075073 1945.71766525 -876.98217773 1946.30960083 C-915.3880118 1960.49245247 -915.3880118 1960.49245247 -934.49853516 1952.38745117 C-943.2752961 1947.84337258 -948.40034818 1941.84472864 -951.45556641 1932.44213867 C-958.75045973 1902.61572755 -956.65329789 1869.38589759 -956.62792969 1838.90917969 C-956.62874135 1836.10466941 -956.63103777 1833.30016073 -956.63323975 1830.49565125 C-956.6376242 1823.75427058 -956.63675452 1817.01290121 -956.63382711 1810.27152015 C-956.63154505 1804.78377982 -956.6312725 1799.2960426 -956.63235092 1793.80830193 C-956.63250415 1793.01970321 -956.63265739 1792.2311045 -956.63281526 1791.41860886 C-956.63313507 1789.8154107 -956.63345928 1788.21221254 -956.63378786 1786.60901438 C-956.63662082 1771.67284742 -956.63338952 1756.73668666 -956.62798749 1741.80052071 C-956.62351531 1729.04083885 -956.62430306 1716.28116608 -956.62890625 1703.52148438 C-956.63428029 1688.61861059 -956.63635272 1673.7157422 -956.63329399 1658.81286758 C-956.63297551 1657.21854174 -956.63266114 1655.6242159 -956.63235092 1654.02989006 C-956.63219665 1653.24591231 -956.63204237 1652.46193457 -956.63188342 1651.65419992 C-956.63102718 1646.18236874 -956.63246156 1640.71054104 -956.63483047 1635.2387104 C-956.63766003 1628.55769828 -956.63682435 1621.87669788 -956.63154973 1615.19568706 C-956.62895567 1611.80029643 -956.628389 1608.40494098 -956.63119888 1605.00954819 C-956.66192616 1564.07153134 -956.66192616 1564.07153134 -954.12353516 1544.07495117 C-953.95337891 1542.56771484 -953.95337891 1542.56771484 -953.77978516 1541.0300293 C-952.4323601 1529.99977846 -949.94228003 1518.56270668 -941.62353516 1510.59057617 C-935.13558809 1505.72461587 -927.66519857 1502.33843291 -920.47216797 1498.65209961 C-900.09696981 1488.07030518 -885.85312373 1474.74498341 -878.72119141 1452.50073242 C-872.11424791 1430.7497836 -874.08218265 1405.67192711 -884.49853516 1385.38745117 C-892.45573049 1371.00865961 -905.28223027 1362.73012327 -919.42041016 1355.21166992 C-920.47220459 1354.65189453 -921.52399902 1354.09211914 -922.60766602 1353.51538086 C-924.69250993 1352.41520105 -926.78421028 1351.32788564 -928.88354492 1350.25561523 C-939.79353499 1344.54260462 -947.67702812 1338.39574402 -951.49853516 1326.38745117 C-959.44860496 1298.51013216 -956.79448896 1266.15582689 -956.7342546 1237.44184232 C-956.72525426 1232.2129338 -956.72723593 1226.98402639 -956.72761536 1221.75511169 C-956.72668583 1212.95814501 -956.7181125 1204.1612133 -956.7043457 1195.36425781 C-956.69046698 1186.4661388 -956.68332269 1177.56805185 -956.68383789 1168.66992188 C-956.68809421 1084.84464243 -956.68809421 1084.84464243 -956.04931641 1048.97729492 C-956.0203682 1047.31839328 -956.0203682 1047.31839328 -955.99083519 1045.62597847 C-955.88469946 1039.79367741 -955.74985471 1033.96323177 -955.57513809 1028.1325798 C-955.52231074 1026.23946854 -955.47802491 1024.34610623 -955.44073105 1022.45262527 C-955.38321748 1019.56366367 -955.30121976 1016.67628803 -955.21411133 1013.78808594 C-955.20210599 1012.92698432 -955.19010065 1012.0658827 -955.17773151 1011.1786871 C-954.88287881 1003.10892582 -951.08282927 998.80869304 -945.68603516 993.01245117 C-942.73245544 989.81273982 -939.79078191 986.61324591 -936.93603516 983.32495117 C-930.56532213 976.00382874 -924.01156706 968.84932667 -917.44262695 961.70654297 C-914.94510396 958.98495623 -912.47798342 956.24326121 -910.06103516 953.44995117 C-906.47916207 949.31834217 -902.76015557 945.31815191 -899.04394531 941.30786133 C-895.25216096 937.21320746 -891.50765732 933.0791211 -887.78369141 928.92260742 C-885.16580387 926.01831851 -882.52100312 923.13974342 -879.87353516 920.26245117 C-876.89628697 917.02534088 -873.93900495 913.77607198 -871.06103516 910.44995117 C-867.47916207 906.31834217 -863.76015557 902.31815191 -860.04394531 898.30786133 C-856.24716864 894.20781638 -852.49847964 890.06756944 -848.76806641 885.90698242 C-843.91297106 880.51707451 -838.99073974 875.18793312 -834.08251953 869.84643555 C-829.36627953 864.71271372 -824.65570924 859.57497961 -819.99853516 854.38745117 C-814.40933732 848.16176106 -808.74329458 842.00692039 -803.08251953 835.84643555 C-798.38615396 830.73434743 -793.69528376 825.61859961 -789.06103516 820.44995117 C-785.06336143 815.99458313 -781.00652631 811.59661598 -776.94018555 807.20410156 C-773.93457443 803.95379767 -770.95301592 800.68448043 -767.99853516 797.38745117 C-763.56482801 792.44154681 -759.05910095 787.56458463 -754.54931641 782.68823242 C-748.34536754 775.97960898 -742.16166723 769.25281427 -736.06103516 762.44995117 C-731.60455805 757.48507026 -727.07905454 752.58610165 -722.54931641 747.68823242 C-716.34536754 740.97960898 -710.16166723 734.25281427 -704.06103516 727.44995117 C-699.602096 722.48232734 -695.07415184 717.58061866 -690.54150391 712.68041992 C-686.30062783 708.09477907 -682.08398667 703.487002 -677.86621094 698.88012695 C-676.47274364 697.35930242 -675.07765764 695.83997793 -673.68212891 694.32104492 C-669.4533004 689.7167117 -665.23450429 685.10468522 -661.06103516 680.44995117 C-656.60455805 675.48507026 -652.07905454 670.58610165 -647.54931641 665.68823242 C-641.34536754 658.97960898 -635.16166723 652.25281427 -629.06103516 645.44995117 C-625.06336143 640.99458313 -621.00652631 636.59661598 -616.94018555 632.20410156 C-613.93457443 628.95379767 -610.95301592 625.68448043 -607.99853516 622.38745117 C-603.56236752 617.43880208 -599.05419681 612.55910345 -594.54150391 607.68041992 C-590.30062783 603.09477907 -586.08398667 598.487002 -581.86621094 593.88012695 C-580.47274364 592.35930242 -579.07765764 590.83997793 -577.68212891 589.32104492 C-573.4533004 584.7167117 -569.23450429 580.10468522 -565.06103516 575.44995117 C-560.602096 570.48232734 -556.07415184 565.58061866 -551.54150391 560.68041992 C-547.30062783 556.09477907 -543.08398667 551.487002 -538.86621094 546.88012695 C-537.47274364 545.35930242 -536.07765764 543.83997793 -534.68212891 542.32104492 C-530.4533004 537.7167117 -526.23450429 533.10468522 -522.06103516 528.44995117 C-517.602096 523.48232734 -513.07415184 518.58061866 -508.54150391 513.68041992 C-505.66458753 510.56962277 -502.79803899 507.44946772 -499.93603516 504.32495117 C-499.26145264 503.58849365 -499.26145264 503.58849365 -498.57324219 502.8371582 C-497.66790913 501.84860603 -496.76263553 500.8599994 -495.85742188 499.87133789 C-493.5721102 497.3758071 -491.28523935 494.8817059 -488.99853516 492.38745117 C-488.08186112 491.38745793 -487.16519445 490.38745793 -486.24853516 489.38745117 C-439.49853516 438.38745117 -439.49853516 438.38745117 -392.74853516 387.38745117 C-392.06803101 386.64507202 -392.06803101 386.64507202 -391.3737793 385.88769531 C-390.4563283 384.88685449 -389.53884779 383.88604072 -388.62133789 382.88525391 C-386.34142965 380.39833856 -384.06202223 377.91096802 -381.78369141 375.42260742 C-376.52915167 369.68489162 -371.26107227 363.960001 -365.98144531 358.24536133 C-361.25991819 353.13304502 -356.55683846 348.00397401 -351.85742188 342.87133789 C-349.11324648 339.87473386 -346.36696326 336.88006134 -343.62109375 333.88500977 C-341.3412815 331.39816242 -339.06194458 328.91088322 -336.78369141 326.42260742 C-331.52915167 320.68489162 -326.26107227 314.960001 -320.98144531 309.24536133 C-315.80487192 303.64033569 -310.65061017 298.01498805 -305.49853516 292.38745117 C-299.33929511 285.65980253 -293.16928932 278.94249364 -286.97924805 272.24316406 C-283.64400713 268.63218548 -280.31795031 265.01297954 -276.99853516 261.38745117 C-272.67117099 256.66102173 -268.32788586 251.94955052 -263.97900391 247.24291992 C-260.64386324 243.63200536 -257.31787265 240.01289472 -253.99853516 236.38745117 C-249.67117099 231.66102173 -245.32788586 226.94955052 -240.97900391 222.24291992 C-237.64386324 218.63200536 -234.31787265 215.01289472 -230.99853516 211.38745117 C-226.67117099 206.66102173 -222.32788586 201.94955052 -217.97900391 197.24291992 C-214.64386324 193.63200536 -211.31787265 190.01289472 -207.99853516 186.38745117 C-203.67117099 181.66102173 -199.32788586 176.94955052 -194.97900391 172.24291992 C-191.64386312 168.63200522 -188.31790016 165.01286964 -184.99853516 161.38745117 C-179.68653699 155.58637855 -174.35259159 149.80575976 -169.01464844 144.02856445 C-166.50839411 141.31567531 -164.0035307 138.60150258 -161.49853516 135.88745117 C-160.49854192 134.8041116 -159.49854192 133.72077827 -158.49853516 132.63745117 C-157.75603516 131.83307617 -157.75603516 131.83307617 -156.99853516 131.01245117 C-151.49853516 125.05411784 -145.99853516 119.09578451 -140.49853516 113.13745117 C-140.00369629 112.6013623 -139.50885742 112.06527344 -138.99902344 111.51293945 C-137.99744989 110.42792861 -136.99582215 109.34296779 -135.99414062 108.25805664 C-133.51777244 105.5757936 -131.04230451 102.89271183 -128.56884766 100.20776367 C-122.61719299 93.74966939 -116.63750233 87.31877377 -110.63964844 80.90356445 C-107.0716448 77.08358594 -103.52523988 73.24559363 -99.99853516 69.38745117 C-95.28726227 64.23341549 -90.52954124 59.12451407 -85.76025391 54.02416992 C-81.99151534 49.99211337 -78.23773636 45.94690514 -74.49853516 41.88745117 C-69.66341975 36.64042577 -64.81246493 31.40844656 -59.93139648 26.20410156 C-56.7920717 22.85597738 -53.67632967 19.48975619 -50.59228516 16.09057617 C-49.93977783 15.37812744 -49.28727051 14.66567871 -48.61499023 13.93164062 C-47.37288476 12.57508726 -46.13775068 11.21210053 -44.91137695 9.84130859 C-32.18575342 -3.98113656 -17.46715495 -5.55261939 0 0 Z M-9.38916016 92.94995117 C-10.5173342 94.08753226 -11.63667498 95.23391992 -12.74853516 96.38745117 C-13.3340918 96.98396484 -13.91964844 97.58047852 -14.52294922 98.19506836 C-18.09052138 101.85386248 -21.51951197 105.60028524 -24.82666016 109.49682617 C-27.43745145 112.44921633 -30.26462564 115.1754494 -33.09228516 117.91870117 C-35.72332582 120.61808055 -38.17712035 123.43582214 -40.64697266 126.28198242 C-43.60165968 129.64184805 -46.67507108 132.88654002 -49.74853516 136.13745117 C-55.1509042 141.87559454 -60.5111343 147.64680526 -65.82666016 153.46557617 C-68.68731171 156.59389103 -71.55963265 159.71112837 -74.43603516 162.82495117 C-75.18469849 163.6354895 -75.18469849 163.6354895 -75.94848633 164.46240234 C-76.95974128 165.55710009 -77.97105328 166.65174514 -78.98242188 167.74633789 C-81.4886762 170.45922703 -83.99353961 173.17339976 -86.49853516 175.88745117 C-87.4985284 176.97079075 -88.4985284 178.05412408 -89.49853516 179.13745117 C-89.99353516 179.67370117 -90.48853516 180.20995117 -90.99853516 180.76245117 C-95.49853515 185.63745117 -95.49853515 185.63745117 -96.9987793 187.26269531 C-97.99799254 188.34518988 -98.99717877 189.42770938 -99.99633789 190.51025391 C-102.50815351 193.23162625 -105.02044848 195.95255312 -107.53369141 198.67260742 C-112.81895902 204.39377339 -118.09453565 210.12349349 -123.35424805 215.86816406 C-127.23068195 220.10009397 -131.1233522 224.31688041 -135.01806641 228.53198242 C-138.35320707 232.14289699 -141.67919766 235.76200763 -144.99853516 239.38745117 C-149.32589932 244.11388062 -153.66918445 248.82535182 -158.01806641 253.53198242 C-161.35320707 257.14289699 -164.67919766 260.76200763 -167.99853516 264.38745117 C-172.32589932 269.11388062 -176.66918445 273.82535182 -181.01806641 278.53198242 C-184.35320707 282.14289699 -187.67919766 285.76200763 -190.99853516 289.38745117 C-194.82188784 293.56338969 -198.65619321 297.72897889 -202.49853516 301.88745117 C-208.18182785 308.0389411 -213.84322637 314.21023934 -219.49853516 320.38745117 C-225.65707705 327.11433723 -231.8266537 333.83063194 -238.015625 340.52954102 C-243.19219839 346.13456665 -248.34646014 351.75991429 -253.49853516 357.38745117 C-259.65707705 364.11433723 -265.8266537 370.83063194 -272.015625 377.52954102 C-276.73715212 382.64185732 -281.44023186 387.77092834 -286.13964844 392.90356445 C-288.42496011 395.39909524 -290.71183096 397.89319645 -292.99853516 400.38745117 C-293.91520919 401.38744442 -294.83187586 402.38744441 -295.74853516 403.38745117 C-400.24853516 517.38745117 -400.24853516 517.38745117 -401.62402344 518.88793945 C-402.53912148 519.88625778 -403.45416071 520.88463004 -404.36914062 521.88305664 C-406.68432368 524.40923537 -409.00057526 526.93441949 -411.31884766 529.45776367 C-415.54620266 534.06094882 -419.76379599 538.67158893 -423.93603516 543.32495117 C-428.39251226 548.28983208 -432.91801577 553.18880069 -437.44775391 558.08666992 C-443.65170277 564.79529337 -449.83540309 571.52208807 -455.93603516 578.32495117 C-460.39251226 583.28983208 -464.91801577 588.18880069 -469.44775391 593.08666992 C-475.65170277 599.79529337 -481.83540309 606.52208807 -487.93603516 613.32495117 C-491.93301894 617.77955027 -495.98927925 622.17663596 -500.0546875 626.56860352 C-503.81580942 630.63626705 -507.53063055 634.74306747 -511.22900391 638.86791992 C-516.08409925 644.25782783 -521.00633057 649.58696922 -525.91455078 654.9284668 C-530.63079078 660.06218862 -535.34136107 665.19992274 -539.99853516 670.38745117 C-545.58773299 676.61314129 -551.25377573 682.76798195 -556.91455078 688.9284668 C-562.36955306 694.86634618 -567.80045405 700.82387508 -573.18603516 706.82495117 C-576.24143689 710.21066661 -579.32710499 713.56827028 -582.41259766 716.92651367 C-585.29276122 720.06412203 -588.15385129 723.21766058 -590.99853516 726.38745117 C-594.77390733 730.59429445 -598.58833964 734.7641997 -602.41259766 738.92651367 C-605.29276122 742.06412203 -608.15385129 745.21766058 -610.99853516 748.38745117 C-614.77390733 752.59429445 -618.58833964 756.7641997 -622.41259766 760.92651367 C-626.02861173 764.86574688 -629.60751274 768.83688497 -633.17822266 772.81713867 C-635.80933299 775.73173564 -638.46505991 778.62284342 -641.12353516 781.51245117 C-644.10076156 784.74958208 -647.05806482 787.99882973 -649.93603516 791.32495117 C-653.5599816 795.50777128 -657.33109262 799.55016924 -661.09375 803.60766602 C-664.34469028 807.11957861 -667.52837828 810.67746535 -670.65869141 814.29760742 C-673.53838421 817.56859606 -676.50207768 820.76248209 -679.45410156 823.96801758 C-681.9860834 826.72236214 -684.48896317 829.49496328 -686.93603516 832.32495117 C-690.51655827 836.45500302 -694.23433277 840.45349187 -697.94873047 844.46264648 C-702.51451448 849.39392164 -707.01502611 854.3812744 -711.49853516 859.38745117 C-712.99810134 861.05450817 -714.49810569 862.72117113 -715.99853516 864.38745117 C-716.74103516 865.21245117 -717.48353516 866.03745117 -718.24853516 866.88745117 C-720.49853516 869.38745117 -722.74853516 871.88745117 -724.99853516 874.38745117 C-726.11228516 875.62688477 -726.11228516 875.62688477 -727.24853516 876.89135742 C-728.74336205 878.549681 -730.24334096 880.20337559 -731.74853516 881.85229492 C-735.56268665 886.04388849 -739.25867845 890.28350769 -742.81103516 894.69995117 C-746.82446751 899.67774183 -751.09411963 904.35635685 -755.51342773 908.97265625 C-758.04341924 911.6494348 -759.9554003 914.05419055 -761.49853516 917.38745117 C-754.3417525 915.32083158 -747.32062814 912.9756356 -740.31103516 910.45776367 C-738.70573692 909.88444557 -738.70573692 909.88444557 -737.06800842 909.29954529 C-733.54386206 908.03992445 -730.02114002 906.77637594 -726.49853516 905.51245117 C-724.63089571 904.84363942 -722.76325575 904.17482909 -720.89556599 903.50615788 C-682.10390984 889.6161207 -643.36499177 875.58416515 -604.71340942 861.30871582 C-588.662522 855.380776 -572.5947019 849.50381904 -556.49853516 843.69995117 C-534.51803257 835.77340091 -512.58287905 827.72646192 -490.65576172 819.65356445 C-481.4589305 816.26802993 -472.25928222 812.89016394 -463.05984497 809.51171875 C-457.95208422 807.63589103 -452.84443925 805.75974812 -447.73681641 803.88354492 C-446.72556198 803.51208344 -445.71430756 803.14062195 -444.67240906 802.75790405 C-438.57724959 800.51884605 -432.48244024 798.27883791 -426.38790894 796.03807068 C-404.59981459 788.02733256 -382.8054709 780.03426665 -360.99853516 772.07495117 C-338.98116977 764.03856508 -316.98507595 755.94521717 -294.99423218 747.83657837 C-293.81615997 747.40219452 -292.63808777 746.96781067 -291.42431641 746.52026367 C-290.25260895 746.08821625 -289.08090149 745.65616882 -287.87368774 745.21102905 C-276.08527312 740.86500793 -264.29250698 736.53086517 -252.49853516 732.19995117 C-251.50181793 731.83392792 -250.50510071 731.46790466 -249.47817993 731.09078979 C-244.48372386 729.25673099 -239.48919544 727.42286929 -234.49462891 725.58911133 C-228.42278557 723.3597535 -222.35124366 721.12957558 -216.27978516 718.89916992 C-215.26754883 718.52731567 -214.2553125 718.15546143 -213.21240234 717.77233887 C-210.14110845 716.64405611 -207.0698206 715.51575691 -203.99853516 714.38745117 C-181.47654737 706.11349272 -181.47654737 706.11349272 -170.51635742 702.08944702 C-146.4574798 693.25617297 -122.40406817 684.4082216 -98.35620117 675.54501343 C-81.90724812 669.48265721 -65.45502376 663.42932091 -48.99853516 657.38745117 C-24.24262322 648.29813235 0.50289003 639.18066647 25.24755859 630.06079102 C35.9813634 626.10483665 46.71572248 622.15038678 57.45004272 618.1958313 C61.00016187 616.8879312 64.550256 615.57996326 68.1003418 614.27197266 C78.89044307 610.29650145 89.68064655 606.32130852 100.47128296 602.34729004 C124.41026112 593.5309276 148.34766986 584.71045627 172.27474976 575.86184692 C187.13606523 570.36610263 202.00307944 564.8859479 216.87216187 559.41125488 C240.36319965 550.76189131 263.84333851 542.08356198 287.31594849 533.38432312 C288.41228607 532.97801163 289.50862366 532.57170013 290.63818359 532.15307617 C292.26782547 531.54910759 292.26782547 531.54910759 293.9303894 530.93293762 C304.78481944 526.91074827 315.64290145 522.8984655 326.50146484 518.88745117 C348.74159958 510.67160174 370.9749581 502.43749865 393.20739746 494.20085144 C401.0551211 491.29349403 408.9031904 488.38707137 416.75146484 485.48120117 C430.33539882 480.45157215 443.91872201 475.42029607 457.50146484 470.38745117 C458.7202533 469.93585632 459.93904175 469.48426147 461.19476318 469.01898193 C499.15477825 454.95324914 537.10139518 440.85213684 575.02410889 426.68609619 C578.48653369 425.39302732 581.9492788 424.10081968 585.41210938 422.80883789 C590.89965068 420.76123718 596.38624821 418.71112708 601.87213135 416.65908813 C603.86757419 415.91302594 605.86328768 415.16768708 607.85931396 414.42318726 C620.81438845 409.58994254 633.68464686 404.57646732 646.50146484 399.38745117 C646.50146484 398.72745117 646.50146484 398.06745117 646.50146484 397.38745117 C615.27710003 381.98617554 615.27710003 381.98617554 583.77783203 367.16015625 C574.11360581 362.71475622 564.55669025 358.06154188 555.00146484 353.38745117 C542.97789394 347.50648628 530.91576555 341.74323319 518.75537109 336.14916992 C510.11851969 332.16601018 501.55272364 328.04996589 493.00146484 323.88745117 C483.25365107 319.14267838 473.47408154 314.48548206 463.62646484 309.94995117 C452.64435877 304.89091941 441.75779363 299.65726897 430.89025879 294.35797119 C420.30132237 289.1972683 409.65820612 284.17871315 398.95849609 279.25073242 C390.25539578 275.23087039 381.62076642 271.08279045 373.00146484 266.88745117 C362.02790432 261.54642202 351.00313335 256.34097462 339.91943359 251.23120117 C331.56930201 247.37221381 323.27565167 243.40563122 315.00146484 239.38745117 C304.59658444 234.33620691 294.1415551 229.40570084 283.640625 224.55664062 C273.69077598 219.95567756 263.78010448 215.2744636 253.87646484 210.57495117 C250.62651194 209.03318521 247.37650778 207.49152733 244.12646484 205.94995117 C243.322397 205.56854477 242.51832916 205.18713837 241.68989563 204.79417419 C233.424843 200.87483159 225.15270863 196.97060129 216.87646484 193.07495117 C216.17118652 192.74293701 215.4659082 192.41092285 214.73925781 192.06884766 C205.46646755 187.70524433 196.17791472 183.37719504 186.87646484 179.07495117 C172.96211881 172.63604857 159.11960814 166.04840005 145.27484131 159.4616394 C144.4240802 159.05688385 143.57331909 158.6521283 142.69677734 158.23510742 C141.84521057 157.82994904 140.9936438 157.42479065 140.11627197 157.00735474 C116.34243548 145.69927969 92.52462245 134.48482839 68.6517334 123.38739014 C66.32821043 122.3068827 64.0051445 121.22539663 61.68212891 120.14379883 C36.14240327 108.25298181 36.14240327 108.25298181 10.51443481 96.5539856 C8.67191441 95.72051055 6.83165371 94.88204577 4.99145508 94.04345703 C3.3605896 93.31074585 3.3605896 93.31074585 1.69677734 92.56323242 C0.75850098 92.13953369 -0.17977539 91.71583496 -1.14648438 91.27929688 C-5.19344857 89.74477744 -6.08765583 90.0232122 -9.38916016 92.94995117 Z M710.14599609 467.52807617 C709.47913284 467.76148712 708.81226959 467.99489807 708.12519836 468.23538208 C705.8534411 469.03229834 703.58361817 469.83456356 701.31396484 470.63745117 C700.10894318 471.06226776 700.10894318 471.06226776 698.87957764 471.4956665 C675.27808331 479.81943595 651.77838148 488.42733644 628.27062988 497.0112915 C624.47768341 498.39624872 620.68443185 499.78036896 616.89111328 501.16430664 C602.449269 506.43331493 588.00859032 511.70550798 573.56874084 516.97998047 C564.15738142 520.41765079 554.74558622 523.85412574 545.33349609 527.28979492 C544.3366832 527.65365988 544.3366832 527.65365988 543.31973267 528.02487564 C542.65621796 528.26707714 541.99270325 528.50927864 541.30908203 528.75881958 C539.97167961 529.24700906 538.63427726 529.73519876 537.296875 530.22338867 C536.63659931 530.46440748 535.97632362 530.70542629 535.29603958 530.9537487 C526.77108796 534.06562754 518.24637076 537.17814847 509.72167969 540.29074097 C503.64134546 542.51083067 497.56097468 544.73082005 491.48046875 546.95043945 C467.54601589 555.68764294 443.61789623 564.44153417 419.70407104 573.23504639 C401.87487069 579.79017899 384.0338881 586.31277915 366.18896484 592.82495117 C365.5206728 593.06883953 364.85238075 593.31272789 364.16383743 593.56400681 C357.47754296 596.00410528 350.79113612 598.44389574 344.10465717 600.88348866 C331.94448953 605.32020043 319.78496613 609.75867464 307.62646484 614.19995117 C306.56524414 614.58758636 305.50402344 614.97522156 304.41064453 615.37460327 C288.16790315 621.30851038 271.93426947 627.26693183 255.70407104 633.23504639 C237.87487069 639.79017899 220.0338881 646.31277915 202.18896484 652.82495117 C201.5206728 653.06883953 200.85238075 653.31272789 200.16383743 653.56400681 C193.47754296 656.00410528 186.79113612 658.44389574 180.10465717 660.88348866 C167.94448953 665.32020043 155.78496613 669.75867464 143.62646484 674.19995117 C142.56524414 674.58758636 141.50402344 674.97522156 140.41064453 675.37460327 C124.16890064 681.30814597 107.93611134 687.26579305 91.70709229 693.23403931 C73.1362283 700.06261226 54.55058598 706.85036071 35.96230698 713.6313324 C17.96765995 720.19584901 -0.02156182 726.77464348 -17.99853516 733.38745117 C-36.65456256 740.25004807 -55.32413404 747.07506229 -73.99853516 753.88745117 C-93.89384938 761.14525751 -113.78245458 768.42077625 -133.65869141 775.73071289 C-150.36195818 781.87339977 -167.07568834 787.98706651 -183.793396 794.09033203 C-199.30613611 799.7541381 -214.81165186 805.43720163 -230.31103516 811.13745117 C-249.87385988 818.33197746 -269.45124047 825.48617954 -289.03278351 832.62954712 C-308.24996427 839.64011684 -327.45989229 846.66991932 -346.65869141 853.73071289 C-362.26461613 859.46984825 -377.87912315 865.18512845 -393.49853516 870.88745117 C-410.33873792 877.03551884 -427.17252026 883.2006591 -443.99853516 889.38745117 C-461.91722216 895.97601011 -479.84551033 902.53786494 -497.77929688 909.08520508 C-513.5257562 914.83443371 -529.2651931 920.60242622 -544.99853516 926.38745117 C-562.92090985 932.97736604 -580.85286918 939.54062289 -598.79037476 946.0892334 C-614.30412225 951.75340494 -629.81064609 957.43683174 -645.31103516 963.13745117 C-664.87385988 970.33197746 -684.45124047 977.48617954 -704.03278351 984.62954712 C-723.2452747 991.63840605 -742.45079229 998.66575017 -761.64459229 1005.72567749 C-776.42903946 1011.16359813 -791.22240413 1016.57664178 -806.02078247 1021.97653198 C-827.20745056 1029.70754549 -848.36735733 1037.50614318 -869.49853516 1045.38745117 C-870.84035406 1080.14429153 -870.94320281 1114.92517496 -871.16333008 1149.70336914 C-871.17167531 1151.00910448 -871.18002054 1152.31483982 -871.18861866 1153.6601429 C-871.19696578 1154.96732718 -871.2053129 1156.27451145 -871.21391296 1157.62130737 C-871.22226355 1158.92869747 -871.23061413 1160.23608757 -871.23921776 1161.58309555 C-871.25584633 1164.22354766 -871.27207276 1166.86400233 -871.28789711 1169.50445938 C-871.38337398 1185.24420404 -871.55365884 1200.97871172 -871.86305237 1216.71572876 C-872.00192723 1223.82518435 -872.10145538 1230.93499118 -872.18785763 1238.04526329 C-872.25839965 1243.61140428 -872.37921958 1249.17335173 -872.53847313 1254.73762131 C-872.6230994 1258.14501812 -872.65710449 1261.5515204 -872.67656708 1264.95985413 C-872.69546665 1266.50633724 -872.73485141 1268.05274742 -872.7977066 1269.59806824 C-873.0488407 1275.96686818 -873.13715053 1281.77567382 -868.89479065 1286.91133118 C-865.9767687 1290.01733589 -862.80759126 1292.70659477 -859.49853516 1295.38745117 C-858.07439091 1296.64252492 -856.65279708 1297.90051818 -855.23681641 1299.16479492 C-854.61242676 1299.69830566 -853.98803711 1300.23181641 -853.34472656 1300.78149414 C-842.53639782 1310.18339661 -832.84310836 1320.75807117 -824.49853516 1332.38745117 C-824.06847168 1332.98380371 -823.6384082 1333.58015625 -823.1953125 1334.19458008 C-816.60501779 1343.43769561 -811.18250192 1353.05175592 -806.49853516 1363.38745117 C-806.22025879 1364.00056152 -805.94198242 1364.61367187 -805.65527344 1365.24536133 C-797.02981032 1384.62532463 -793.07750875 1404.93551521 -793.18603516 1426.07495117 C-793.18926788 1427.20637543 -793.18926788 1427.20637543 -793.19256592 1428.36065674 C-793.2429065 1439.32937406 -793.63875406 1449.73909961 -796.49853516 1460.38745117 C-796.78857422 1461.5241626 -796.78857422 1461.5241626 -797.08447266 1462.68383789 C-804.4142043 1491.05826971 -818.54572474 1515.57680262 -838.34619141 1537.04760742 C-840.4657013 1539.35175701 -842.51288857 1541.70740551 -844.56103516 1544.07495117 C-847.57452015 1547.47326234 -850.74526713 1550.4327829 -854.21337891 1553.35620117 C-857.76061839 1556.50930294 -861.05935327 1559.9064193 -864.37451172 1563.30078125 C-866.65965933 1565.62456481 -868.77484073 1567.57165489 -871.49853516 1569.38745117 C-871.79716778 1572.3472729 -871.89819447 1575.09846923 -871.87275696 1578.06115723 C-871.87673136 1578.97088838 -871.88070577 1579.88061954 -871.88480061 1580.8179183 C-871.89447593 1583.88747569 -871.88257197 1586.95657808 -871.87084961 1590.02612305 C-871.87327666 1592.22112704 -871.87699513 1594.41612993 -871.88191223 1596.61112976 C-871.89136321 1602.60390516 -871.88184645 1608.59651828 -871.8685801 1614.58928108 C-871.85724645 1620.90135847 -871.86137635 1627.21342805 -871.86332703 1633.5255127 C-871.8642125 1644.17890393 -871.85317474 1654.83222561 -871.8347168 1665.4855957 C-871.81592633 1676.33424819 -871.80857071 1687.18282654 -871.81420898 1698.03149414 C-871.82102093 1711.17681912 -871.81745927 1724.3221014 -871.80510521 1737.46742249 C-871.80055121 1742.43889482 -871.79954448 1747.41034688 -871.80169106 1752.38182068 C-871.80811061 1777.82447288 -871.56561162 1803.23243041 -870.60473633 1828.65893555 C-870.56597212 1829.74966275 -870.52720792 1830.84038996 -870.48726904 1831.9641695 C-870.37605327 1835.01089706 -870.25118556 1838.05670186 -870.12077332 1841.10266113 C-870.088294 1842.00495421 -870.05581468 1842.9072473 -870.02235115 1843.83688259 C-869.98342943 1844.66135671 -869.94450771 1845.48583082 -869.90440655 1846.335289 C-869.8742252 1847.04994371 -869.84404386 1847.76459842 -869.81294793 1848.50090933 C-869.57656345 1850.714976 -869.57656345 1850.714976 -867.49853516 1853.38745117 C-843.14322269 1844.33416331 -818.87789284 1835.07732564 -794.68788147 1825.5916748 C-783.8033008 1821.32636916 -772.90008044 1817.10915663 -761.99853516 1812.88745117 C-746.16134373 1806.75247955 -730.33209177 1800.59776209 -714.51303101 1794.41619873 C-699.42848272 1788.52235227 -684.32913046 1782.66712613 -669.22717285 1776.8180542 C-651.63807778 1770.00450246 -634.06673297 1763.14630995 -616.50561523 1756.26098633 C-615.60003372 1755.90604095 -614.69445221 1755.55109558 -613.76142883 1755.18539429 C-612.02374535 1754.50425426 -610.28618172 1753.82280837 -608.54875183 1753.14102173 C-602.61815067 1750.81663392 -596.67234111 1748.53631037 -590.71044922 1746.29321289 C-588.56209794 1745.57981717 -588.56209794 1745.57981717 -587.49853516 1744.38745117 C-587.30273761 1741.35297242 -587.16724411 1738.33572119 -587.06884766 1735.29760742 C-586.99501231 1733.37767076 -586.92077942 1731.45774936 -586.84619141 1729.5378418 C-586.73413506 1726.52177962 -586.62540196 1723.5057117 -586.52441406 1720.48925781 C-585.10402149 1678.94104273 -572.33706796 1650.35945637 -541.93701172 1621.62329102 C-519.9352871 1601.44990355 -495.81414895 1591.94162976 -465.81103516 1592.07495117 C-464.49683594 1592.07986572 -463.18263672 1592.08478027 -461.82861328 1592.08984375 C-433.58456319 1592.42881407 -410.29073749 1601.36423621 -389.49853516 1620.38745117 C-388.47063783 1621.30755889 -387.44199526 1622.22683474 -386.41259766 1623.14526367 C-377.45701949 1631.19054174 -368.72563331 1639.53947535 -360.93603516 1648.73120117 C-360.46166016 1649.27776367 -359.98728516 1649.82432617 -359.49853516 1650.38745117 C-359.06541016 1650.97526367 -358.63228516 1651.56307617 -358.18603516 1652.16870117 C-356.49883528 1653.66587804 -356.49883528 1653.66587804 -353.95092773 1653.17407227 C-349.63066061 1652.1897076 -345.67959621 1650.66491832 -341.57275391 1649.02026367 C-340.69420242 1648.67410004 -339.81565094 1648.3279364 -338.91047668 1647.97128296 C-337.00327114 1647.21909203 -335.09711422 1646.46423804 -333.19189453 1645.70703125 C-329.07361869 1644.07035779 -324.95032336 1642.44650962 -320.82730103 1640.82183838 C-318.66068218 1639.96795822 -316.49432468 1639.11341466 -314.32821655 1638.25823975 C-303.91791563 1634.15015191 -293.48440631 1630.10304996 -283.04629517 1626.06625366 C-266.01649054 1619.47952241 -249.00023458 1612.85888274 -231.99853516 1606.19995117 C-231.04604889 1605.82691864 -230.09356262 1605.45388611 -229.11221313 1605.06954956 C-225.31973587 1603.58418512 -221.52730568 1602.09870058 -217.73493958 1600.61305237 C-208.22089897 1596.88622759 -198.70443866 1593.16561839 -189.18603516 1589.44995117 C-188.35977631 1589.12739349 -187.53351746 1588.80483582 -186.68222046 1588.47250366 C-171.53104999 1582.5591921 -156.36589743 1576.68214505 -141.19979858 1570.80725098 C-121.37248571 1563.12554015 -101.56928088 1555.38308424 -81.77111816 1547.62661743 C-67.86022055 1542.17755773 -53.94040125 1536.75133914 -40.02157593 1531.3225708 C-34.19675074 1529.05051348 -28.37284717 1526.77610516 -22.54931641 1524.50073242 C-5.27760026 1517.75341951 12.00198487 1511.02711403 29.29370117 1504.33120728 C30.31101318 1503.93726776 31.3283252 1503.54332825 32.37646484 1503.13745117 C33.39732178 1502.74214203 34.41817871 1502.34683289 35.4699707 1501.93954468 C52.40039722 1495.38181417 69.30785019 1488.76685268 86.20672607 1482.1282959 C101.78948735 1476.00767274 117.38822601 1469.92988495 133.00146484 1463.88745117 C152.00672652 1456.53183987 170.98675322 1449.11358911 189.95605469 1441.66577148 C192.07274991 1440.83470662 194.18944909 1440.00365183 196.30615234 1439.17260742 C197.33976898 1438.76678436 198.37338562 1438.3609613 199.43832397 1437.94284058 C209.49608165 1433.99499984 219.56013772 1430.0633821 229.62646484 1426.13745117 C230.45509033 1425.8142691 231.28371582 1425.49108704 232.13745117 1425.15811157 C236.27073032 1423.5461428 240.40413364 1421.93449272 244.53759766 1420.32299805 C252.16875596 1417.34768639 259.79876688 1414.36943424 267.42889404 1411.39147949 C271.70304012 1409.72335681 275.97725591 1408.05541279 280.25146484 1406.38745117 C281.95979851 1405.72078537 283.66813185 1405.0541187 285.37646484 1404.38745117 C288.79313151 1403.05411784 292.20979818 1401.72078451 295.62646484 1400.38745117 C296.89494011 1399.89243607 296.89494011 1399.89243607 298.18904114 1399.38742065 C299.89711949 1398.72085399 301.60519851 1398.05428905 303.3132782 1397.38772583 C307.58801832 1395.71954325 311.86274671 1394.05133062 316.13745117 1392.38305664 C323.77831302 1389.40111733 331.41924989 1386.41937117 339.06063843 1383.43878174 C358.85376053 1375.71828008 378.64258193 1367.98690621 398.42636108 1360.24249268 C412.78494843 1354.62192608 427.14730182 1349.01110488 441.51269531 1343.40795898 C455.17927499 1338.0771177 468.84133626 1332.73480002 482.50146484 1327.38745117 C496.99827198 1321.7125789 511.49774383 1316.04462991 526.00146484 1310.38745117 C540.4005936 1304.77086016 554.79622281 1299.14538874 569.18896484 1293.51245117 C570.14491547 1293.13832092 571.10086609 1292.76419067 572.08578491 1292.37872314 C578.89111899 1289.71524026 585.69630823 1287.05138744 592.50146484 1284.38745117 C599.30734979 1281.72322979 606.11327643 1279.05911503 612.91934204 1276.39535522 C614.8475564 1275.6406863 616.77575873 1274.88598665 618.70394897 1274.1312561 C629.72790629 1269.8164469 640.75401283 1265.50723508 651.78413391 1261.20820618 C667.34244732 1255.14422666 682.89772429 1249.0724309 698.43652344 1242.95858765 C700.13571691 1242.29039752 701.83525719 1241.62308859 703.53515625 1240.95669556 C705.86868176 1240.04161539 708.2008726 1239.1232169 710.53271484 1238.20385742 C711.22844604 1237.93176453 711.92417725 1237.65967163 712.64099121 1237.3793335 C715.80996283 1236.28003675 715.80996283 1236.28003675 718.50146484 1234.38745117 C718.62426065 1231.71181456 718.68166328 1229.06092745 718.69786072 1226.38383484 C718.71137153 1225.1091529 718.71137153 1225.1091529 718.72515529 1223.80871981 C718.75428541 1220.9374458 718.77620094 1218.06616189 718.7980957 1215.19482422 C718.81717855 1213.14666454 718.83665087 1211.09850845 718.85648537 1209.05035591 C718.90926038 1203.44915338 718.95540634 1197.8479135 719.000108 1192.2466414 C719.02888576 1188.70216612 719.05946465 1185.15771105 719.09068108 1181.61325645 C719.53680419 1130.94553595 719.80370694 1080.27701022 720.01887453 1029.60785377 C720.05347654 1021.50808967 720.09065052 1013.4083402 720.12915039 1005.30859375 C720.13453878 1004.16306412 720.13992717 1003.01753449 720.14547884 1001.83729184 C720.17269757 996.05464972 720.20055945 990.2720119 720.22946739 984.48937798 C720.28513586 973.06448548 720.3242226 961.63990676 720.32974243 950.21487427 C720.3336492 945.70680495 720.3391403 941.19874003 720.34570312 936.69067383 C720.34712287 935.57805058 720.34854262 934.46542733 720.35000539 933.31908822 C720.37754222 918.04679922 720.62546118 902.79204431 721.04073811 887.52551365 C721.26571993 879.19403354 721.42468983 870.86165946 721.5670864 862.52839559 C721.66839104 856.88100427 721.80696119 851.23989605 722.0354023 845.59610939 C724.07640668 824.28078188 724.07640668 824.28078188 718.57921219 804.41025162 C713.97703001 800.00126167 708.96110669 797.86774526 702.89172554 796.16752052 C699.28078228 794.98907745 696.83696247 793.05700893 693.87646484 790.69995117 C692.95994141 789.98452148 692.04341797 789.2690918 691.09912109 788.53198242 C686.76445539 784.95343885 682.58914126 781.2450266 678.50146484 777.38745117 C677.76412109 776.71456055 677.02677734 776.04166992 676.26708984 775.34838867 C654.92143508 755.13814107 640.36204516 725.55695125 639.29833984 696.08276367 C638.71239727 662.07584315 651.22557492 633.07149102 674.50146484 608.38745117 C675.10216797 607.72229492 675.70287109 607.05713867 676.32177734 606.37182617 C680.21744795 602.22318994 684.50789043 598.71959568 689.06396484 595.32495117 C689.94087227 594.64842751 689.94087227 594.64842751 690.835495 593.95823669 C694.83733332 590.98489531 698.68651282 588.80274006 703.30175781 586.90185547 C710.21514017 583.7783859 718.30894417 580.08789675 721.21285629 572.5378685 C724.07374514 561.43362093 722.82098412 549.28215858 722.19732666 537.96289062 C721.97813408 533.52446662 721.89603534 529.08384313 721.80029297 524.64135742 C721.31546057 504.86305549 720.05682087 485.1083553 718.50146484 465.38745117 C715.47818144 465.38745117 712.99619958 466.52814024 710.14599609 467.52807617 Z " fill="#000000" transform="translate(957.49853515625,2.612548828125)"/>
<path d="M0 0 C1.06734375 0.7425 2.1346875 1.485 3.234375 2.25 C12.57236266 9.0236698 20.86617126 16.83984819 29 25 C29.69480469 25.66 30.38960937 26.32 31.10546875 27 C58.55695635 53.36990929 77.91431676 93.29977089 79.203125 131.55078125 C79.62013858 156.78274198 74.02939577 180.3300965 63 203 C62.70399902 203.61649414 62.40799805 204.23298828 62.10302734 204.86816406 C54.87737147 219.72545539 45.33193793 233.00408133 34 245 C32.89140313 246.3087602 31.78709026 247.62116359 30.6875 248.9375 C5.76408411 277.33992818 -31.61851738 296.504493 -69 301 C-73.87879441 301.28773343 -78.73856911 301.33406606 -83.625 301.3125 C-84.60995453 301.30976578 -84.60995453 301.30976578 -85.61480713 301.30697632 C-129.50775217 301.10245435 -168.58314305 280.32101763 -199.28173828 249.75732422 C-222.4857263 226.02582298 -238.82480867 196.37661199 -246 164 C-246.24621094 162.95457031 -246.49242187 161.90914062 -246.74609375 160.83203125 C-253.89538907 124.29666689 -242.38519776 84.43158294 -222.25830078 53.85498047 C-214.99244539 43.14369424 -206.97891441 33.31295141 -198 24 C-197.236875 23.17371094 -196.47375 22.34742188 -195.6875 21.49609375 C-145.99144172 -30.8022919 -59.64805026 -41.61491878 0 0 Z M-149 84 C-164.79784409 102.80145613 -165.67568684 126.33319568 -163.77294922 149.80029297 C-162.19880162 164.59505935 -158.54480528 178.26784351 -149 190 C-148.38125 190.78117187 -147.7625 191.56234375 -147.125 192.3671875 C-134.72496129 207.21723386 -115.82957327 215.20218904 -97 218 C-82.6567309 218.90220979 -68.61783312 218.89776922 -55 214 C-54.3385498 213.76394043 -53.67709961 213.52788086 -52.99560547 213.28466797 C-35.55054079 206.87754144 -20.07909443 195.14232785 -12 178 C-9.95955451 172.77707914 -8.41534293 167.42100378 -7 162 C-6.75121094 161.05898437 -6.50242187 160.11796875 -6.24609375 159.1484375 C-1.55281303 136.89637925 -4.43219497 110.84470554 -16.25 91.3125 C-27.4440923 74.67851404 -43.08977497 62.61858872 -62.76782227 58.08300781 C-94.88328765 51.94552728 -126.23884754 60.45734875 -149 84 Z " fill="#000000" transform="translate(863,1169)"/>
<path d="M0 0 C25.35637409 21.60995862 53.62525946 56.04729762 57.54614258 90.53076172 C58.23181562 99.1830788 58.39850161 107.85562448 58.54614258 116.53076172 C58.56805664 117.62694824 58.5899707 118.72313477 58.61254883 119.85253906 C59.39184683 163.11007253 47.14859069 198.28575314 17.53442383 230.35498047 C15.93907437 232.10077545 14.44678525 233.86364274 12.98364258 235.71826172 C9.80233289 239.38900367 6.25653606 242.4078472 2.54614258 245.53076172 C1.66958008 246.29517578 0.79301758 247.05958984 -0.11010742 247.84716797 C-25.17121006 269.37142145 -54.88765259 284.85912709 -88.41088867 284.83154297 C-90.1908448 284.83797066 -90.1908448 284.83797066 -92.00675964 284.8445282 C-94.49831509 284.85022886 -96.98988717 284.85080358 -99.48144531 284.84643555 C-103.24663331 284.84327826 -107.01103188 284.8667812 -110.77612305 284.89208984 C-154.36628877 285.0086647 -188.40636696 265.39209719 -219.01635742 235.34326172 C-231.16948432 223.15495934 -240.60917379 209.81981146 -248.45385742 194.53076172 C-248.77193359 193.91910156 -249.09000977 193.30744141 -249.41772461 192.67724609 C-266.80154666 158.85417749 -270.74397079 117.96399136 -259.49536133 81.56542969 C-244.2186772 34.57143947 -208.66428219 -3.08396353 -165.13745117 -25.75439453 C-110.5465386 -53.1625902 -45.40291451 -37.96312093 0 0 Z M-163.40698242 67.59716797 C-180.1404582 87.06465652 -184.94290464 110.46236057 -183.45385742 135.53076172 C-181.62890509 152.04626674 -175.13746406 167.80911766 -164.45385742 180.53076172 C-163.9356543 181.16111328 -163.41745117 181.79146484 -162.88354492 182.44091797 C-149.13546553 197.60525679 -126.94474021 204.77321735 -107.00854492 205.81201172 C-92.03430655 206.27397092 -78.16449137 203.72896282 -64.45385742 197.53076172 C-63.52057617 197.11181641 -62.58729492 196.69287109 -61.62573242 196.26123047 C-43.44542593 187.24899282 -31.15237108 170.22574404 -24.7175293 151.37353516 C-17.5777124 128.1105198 -20.22138894 102.02365815 -31.45385742 80.53076172 C-33.56055816 76.98583259 -35.87917079 73.74912001 -38.45385742 70.53076172 C-39.09838867 69.69931641 -39.74291992 68.86787109 -40.40698242 68.01123047 C-49.97972755 56.4707544 -62.07063395 50.2809887 -76.45385742 46.53076172 C-77.67331055 46.21236328 -78.89276367 45.89396484 -80.14916992 45.56591797 C-110.19335405 38.87229584 -141.74863872 44.68264033 -163.40698242 67.59716797 Z " fill="#000000" transform="translate(1534.453857421875,896.46923828125)"/>
<path d="M0 0 C0.88727783 0.7101123 0.88727783 0.7101123 1.79248047 1.43457031 C26.18995552 21.17404946 45.73888867 48.49450773 51 80 C51.11085938 80.65355469 51.22171875 81.30710937 51.3359375 81.98046875 C55.71960799 113.55474403 44.87694273 143.58688321 26.03515625 168.609375 C24.06969869 171.11581989 22.05475482 173.56632652 20 176 C19.30132813 176.83402344 18.60265625 177.66804687 17.8828125 178.52734375 C12.46976091 184.77835884 6.57044799 189.9926073 0 195 C-0.80179688 195.61746094 -1.60359375 196.23492188 -2.4296875 196.87109375 C-23.35508838 212.27356095 -48.94413976 218.15046978 -74.5612793 218.29516602 C-75.96991042 218.30664986 -77.37849926 218.32704482 -78.78686523 218.35668945 C-91.67664611 218.62670359 -102.68261275 216.00392402 -114.3125 210.375 C-115.02051758 210.03509033 -115.72853516 209.69518066 -116.45800781 209.3449707 C-129.58565353 202.88739154 -141.26277858 194.9191474 -152 185 C-152.51014648 184.53368164 -153.02029297 184.06736328 -153.54589844 183.58691406 C-175.36448435 163.42858834 -191.1263828 134.48841021 -192.31640625 104.46484375 C-192.64190355 90.87440673 -192.23137429 77.98594178 -188 65 C-187.79101074 64.35853027 -187.58202148 63.71706055 -187.36669922 63.05615234 C-175.94251795 29.41685903 -149.27404658 0.72220861 -117.85400391 -15.2902832 C-78.7806448 -34.273824 -33.43520945 -26.88365032 0 0 Z M-102.78125 68.8984375 C-110.54678036 79.138279 -111.17519791 93.20560227 -109.53125 105.5078125 C-107.69686915 115.61874504 -104.19335356 124.28283524 -95.92578125 130.75390625 C-84.60626042 138.07830208 -71.49089222 138.2388554 -58.46875 136.5390625 C-49.78693752 134.63711904 -42.88443826 131.0461815 -37.625 123.75 C-30.20829084 111.54632897 -29.08796589 94.72700052 -31.75 80.875 C-34.10515501 72.39964626 -40.87865524 65.93971928 -48.375 61.63671875 C-64.63780266 54.08220738 -90.10625155 55.38955757 -102.78125 68.8984375 Z " fill="#000000" transform="translate(1094,842)"/>
<path d="M0 0 C0.63711914 0.20898926 1.27423828 0.41797852 1.93066406 0.63330078 C36.26001555 12.2829409 62.7348947 38.90769692 78.92041016 70.75683594 C85.23587043 83.87905417 88.38353057 96.3343209 88.3125 110.875 C88.30512817 112.66031128 88.30512817 112.66031128 88.29760742 114.48168945 C87.84163405 149.18944709 74.88350738 177.22503978 51 202 C50.11248047 202.96486328 50.11248047 202.96486328 49.20703125 203.94921875 C29.70989584 224.60173996 -0.02468697 237.96127618 -28.21875 239.22265625 C-59.24151506 240.09163179 -87.50852012 227.78631964 -111 208 C-111.76183594 207.37351562 -112.52367187 206.74703125 -113.30859375 206.1015625 C-119.32545821 200.99192024 -124.19252324 195.24369969 -129 189 C-129.66902344 188.14664063 -130.33804688 187.29328125 -131.02734375 186.4140625 C-146.20743833 166.39437342 -155.45003845 143.11957444 -155.3125 117.8125 C-155.30686035 116.71679688 -155.3012207 115.62109375 -155.29541016 114.4921875 C-154.88804493 87.09788443 -143.85387177 60.67843574 -126 40 C-125.31599121 39.19272461 -125.31599121 39.19272461 -124.61816406 38.36914062 C-94.53018827 3.13915662 -45.2467852 -15.11701349 0 0 Z M-65.8125 88.875 C-74.2216616 100.888088 -73.22072361 117.86178695 -71.5390625 131.828125 C-69.73618995 140.10012845 -66.11581528 146.18101096 -59 150.875 C-46.39486783 157.9892602 -29.68578992 157.64788984 -16.0078125 154.03515625 C-7.68323782 151.17020523 -1.28845979 146.79590869 3 139 C7.77506906 127.92710364 9.32446409 112.65681133 5.9375 100.9375 C1.82287585 91.18431682 -6.93901215 82.45638319 -16.64453125 78.296875 C-21.63637468 76.5468912 -26.50715687 76.54637091 -31.75 76.625 C-32.72211426 76.63515137 -33.69422852 76.64530273 -34.69580078 76.65576172 C-47.53654232 76.9326221 -56.94203789 79.24346274 -65.8125 88.875 Z " fill="#000000" transform="translate(1016,291)"/>
<path d="M0 0 C1.28366455 0.00563965 2.5673291 0.0112793 3.88989258 0.01708984 C37.92500938 0.44973056 64.46946613 13.26866515 89 36.3125 C89.58910156 36.83714844 90.17820312 37.36179687 90.78515625 37.90234375 C111.48224361 57.13155257 124.98813476 87.38064222 126.3828125 115.41015625 C127.33236697 148.85243822 115.21791052 177.93622442 92.3671875 202.1953125 C84.24571797 210.65223187 75.94972988 218.09357966 66 224.3125 C65.38721191 224.69986328 64.77442383 225.08722656 64.14306641 225.48632812 C37.693893 241.94841298 8.48718067 247.12684228 -22 240.3125 C-40.54201619 235.70757706 -57.52754903 226.72016412 -72 214.3125 C-72.51111328 213.87824707 -73.02222656 213.44399414 -73.54882812 212.99658203 C-100.781713 189.67480297 -115.46253422 158.59687236 -118.25390625 123.08203125 C-118.3134305 120.45899602 -118.21103173 117.92778603 -118 115.3125 C-117.9071875 114.10851563 -117.814375 112.90453125 -117.71875 111.6640625 C-115.62202506 89.13671695 -106.12458967 67.86814356 -92 50.3125 C-91.52127441 49.71566406 -91.04254883 49.11882812 -90.54931641 48.50390625 C-75.04463516 29.38702328 -55.71611903 14.52407415 -32.75 5.4375 C-31.66960449 5.00787964 -31.66960449 5.00787964 -30.56738281 4.56958008 C-20.43553666 0.73612668 -10.79011009 -0.04951863 0 0 Z M-24.875 91.875 C-25.57625 92.679375 -26.2775 93.48375 -27 94.3125 C-27.680625 95.055 -28.36125 95.7975 -29.0625 96.5625 C-35.98906611 106.39375513 -37.52300354 117.58925055 -35.68359375 129.33251953 C-33.29180122 141.12603053 -29.29729724 150.47466221 -19.8125 158.0625 C-8.62891331 163.03298297 12.37254378 162.29642708 23.75 158.33984375 C32.12323557 154.51664765 37.29699242 149.88405198 41 141.3125 C43.32485357 134.21055006 43.3328691 127.36814623 43.3125 119.9375 C43.32861328 118.76960938 43.34472656 117.60171875 43.36132812 116.3984375 C43.36593987 108.1710822 42.55371096 100.80703129 38.4375 93.5625 C20.74369774 77.22975945 -6.77635377 75.74359792 -24.875 91.875 Z " fill="#000000" transform="translate(325,1021.6875)"/>
</svg>
