<?xml version="1.0" encoding="UTF-8"?>
<svg version="1.1" xmlns="http://www.w3.org/2000/svg" width="738" height="737">
<path d="M0 0 C1.53022797 -0.00744736 1.53022797 -0.00744736 3.09136963 -0.01504517 C6.46228717 -0.02963555 9.83315765 -0.03646376 13.20410156 -0.04199219 C15.55194093 -0.04774638 17.89978028 -0.05350408 20.24761963 -0.05926514 C25.17029031 -0.06976636 30.0929447 -0.07561473 35.015625 -0.07910156 C41.31136268 -0.08458318 47.60688375 -0.10860806 53.90255356 -0.13707352 C58.75311911 -0.15573327 63.60363285 -0.16090729 68.45423126 -0.16243744 C70.77457106 -0.16545714 73.09491009 -0.17346252 75.41521454 -0.18662262 C78.66760047 -0.20375193 81.91946177 -0.20178582 85.171875 -0.1953125 C86.12284058 -0.20452728 87.07380615 -0.21374207 88.05358887 -0.22323608 C94.39148834 -0.18388837 101.47627079 0.22702491 106.47100449 4.5777092 C110.57362224 9.3066001 111.12005056 13.24694742 111.05221558 19.24197388 C110.66813043 24.64566033 109.32835034 29.81582258 108.03613281 35.06347656 C107.7499559 36.26299454 107.46377899 37.46251251 107.16893005 38.69837952 C106.25888073 42.50108176 105.33315009 46.29976833 104.40722656 50.09863281 C103.78838454 52.67716823 103.17053591 55.25594227 102.55371094 57.83496094 C101.42555513 62.53488447 100.29505924 67.23419106 99.15161133 71.93041992 C98.92288834 72.87066513 98.69416534 73.81091034 98.45851135 74.77964783 C97.99111813 76.59313355 97.43694163 78.3844876 96.84472656 80.16113281 C100.80472656 80.16113281 104.76472656 80.16113281 108.84472656 80.16113281 C108.84472656 94.35113281 108.84472656 108.54113281 108.84472656 123.16113281 C111.81472656 123.82113281 114.78472656 124.48113281 117.84472656 125.16113281 C125.74877842 128.83798064 131.2263206 135.06494986 134.71972656 142.97363281 C137.68208192 152.05582408 135.93134812 160.74512009 131.84472656 169.16113281 C126.4444209 177.57925635 118.16393305 180.9224773 108.84472656 183.16113281 C108.9054749 200.11284919 108.98312378 217.06439488 109.08044147 234.01593876 C109.1252497 241.88829769 109.16469809 249.7606129 109.19116211 257.63305664 C109.21426432 264.50127339 109.24779646 271.36934999 109.29342812 278.23745531 C109.31719713 281.86809745 109.33603198 285.49860221 109.34234047 289.12932014 C109.42614714 331.67009835 122.70234525 356.25173829 152.23925781 385.99707031 C153.00499304 386.76970844 153.77072826 387.54234657 154.55966759 388.33839798 C158.59401757 392.40825794 162.6342263 396.47219229 166.67944336 400.53125 C170.85201985 404.72053977 175.00316332 408.9304415 179.15012074 413.14507103 C182.35464226 416.39422367 185.5745247 419.62781273 188.79886436 422.85728836 C190.33774043 424.40406586 191.87072944 425.95672356 193.39765358 427.51530075 C195.52255326 429.68140618 197.66824592 431.82455702 199.82055664 433.96337891 C200.44560593 434.61045303 201.07065521 435.25752716 201.71464539 435.92420959 C203.36825758 437.54273678 204.87206999 438.95202821 206.84472656 440.16113281 C210.07562003 440.27381859 210.07562003 440.27381859 212.84472656 439.16113281 C213.77671875 438.86335938 214.70871094 438.56558594 215.66894531 438.25878906 C217.08626953 437.74638672 217.08626953 437.74638672 218.53222656 437.22363281 C234.52719131 431.83317288 253.50189278 430.27522631 269.13769531 437.73144531 C271.17572185 438.79886481 273.19569684 439.9020772 275.18847656 441.05175781 C278.39876703 442.39252618 279.54790009 442.12934351 282.84472656 441.16113281 C285.18868989 439.74077996 285.18868989 439.74077996 287.46582031 437.94628906 C292.68712119 434.16188401 298.07580027 431.32380732 303.90722656 428.59863281 C304.89859619 428.12901123 305.88996582 427.65938965 306.91137695 427.17553711 C315.36744083 423.23898802 323.96170421 419.98700704 332.84472656 417.16113281 C331.94753906 416.74863281 331.05035156 416.33613281 330.12597656 415.91113281 C326.02188222 414.01629332 321.93072292 412.09465991 317.84472656 410.16113281 C317.17715332 409.8457959 316.50958008 409.53045898 315.82177734 409.20556641 C283.30662222 393.73250447 257.1911272 370.91744381 236.10644531 341.85644531 C234.95281466 340.30636574 233.72989949 338.80847597 232.50097656 337.31738281 C230.84472656 335.16113281 230.84472656 335.16113281 230.84472656 333.16113281 C240.51495858 330.72507781 249.36256315 329.67280336 259.34472656 329.78613281 C260.64845215 329.79555908 261.95217773 329.80498535 263.29541016 329.81469727 C312.62178069 330.57435606 358.78869364 350.37001876 393.27197266 385.62011719 C397.72989043 390.29320082 401.72286282 394.96330705 405.28222656 400.34863281 C407.22857123 402.89070447 408.18671737 403.98405709 411.29785156 404.82128906 C414.26154806 404.91866766 416.91977874 404.64603796 419.84472656 404.16113281 C420.79605469 404.0103125 421.74738281 403.85949219 422.72753906 403.70410156 C436.22396347 400.91484052 450.10735011 393.74167684 458.53222656 382.66113281 C467.58892802 368.84439757 472.13958375 351.97874979 469.20410156 335.58300781 C468.4809719 332.42108791 467.69435628 329.29111585 466.84472656 326.16113281 C466.50881088 324.82844772 466.17429423 323.49540192 465.84472656 322.16113281 C468.27690715 320.96149638 470.71443234 319.77628843 473.15722656 318.59863281 C473.84751953 318.25638672 474.5378125 317.91414063 475.24902344 317.56152344 C480.50488281 315.04785156 480.50488281 315.04785156 483.84472656 316.16113281 C484.97753906 318.45410156 484.97753906 318.45410156 485.96972656 321.34863281 C486.30230469 322.2909375 486.63488281 323.23324219 486.97753906 324.20410156 C488.92007353 330.82796911 489.07179141 337.24270066 489.09472656 344.09863281 C489.10064819 345.62810547 489.10064819 345.62810547 489.10668945 347.18847656 C489.05106709 354.45493594 488.25467049 360.96152391 486.40332031 368.00488281 C485.23240079 374.62098752 487.02303058 379.07189609 490.46972656 384.66113281 C506.73149119 411.96682682 514.30281833 442.84753351 514.21972656 474.53613281 C514.21891083 475.7136763 514.21891083 475.7136763 514.21807861 476.91500854 C514.11900341 508.18512473 505.89667244 538.66238554 490.84472656 566.16113281 C486.82772622 564.8221327 485.15085315 562.15473518 482.65722656 558.91113281 C482.16963867 558.28142578 481.68205078 557.65171875 481.1796875 557.00292969 C449.09816543 514.91568012 444.80387599 464.89785121 450.84472656 414.16113281 C432.39809145 422.62208623 432.39809145 422.62208623 415.84472656 434.16113281 C415.12800781 434.74636719 414.41128906 435.33160156 413.67285156 435.93457031 C400.78856625 447.41417791 397.76684714 465.03253348 396.15722656 481.34863281 C396.02767578 482.58677734 395.898125 483.82492187 395.76464844 485.10058594 C395.44988021 488.12002929 395.14340813 491.14006318 394.84472656 494.16113281 C395.77865234 494.30719971 396.71257813 494.4532666 397.67480469 494.60375977 C411.31733867 497.00255098 421.59667518 507.95596806 429.52050781 518.65722656 C443.01938838 538.04707805 448.26959982 562.49555334 448.15722656 585.78613281 C448.15231201 587.00598877 448.14739746 588.22584473 448.14233398 589.48266602 C448.01217391 599.61445976 447.10760689 609.28653979 444.84472656 619.16113281 C444.61124512 620.20406494 444.61124512 620.20406494 444.37304688 621.26806641 C440.30124004 638.68093296 432.45381293 655.53307491 420.84472656 669.16113281 C420.296875 669.86882813 419.74902344 670.57652344 419.18457031 671.30566406 C409.91287064 682.85542262 396.45175188 691.50181897 381.84472656 694.16113281 C365.49556848 695.79253123 351.64738378 693.77939532 338.43457031 683.37988281 C317.02910719 665.0415675 307.84962301 639.63288895 305.21972656 612.16113281 C302.84438188 578.69036682 310.77868209 541.9418951 333.09204102 515.95361328 C341.98501124 506.08537824 352.44793411 499.02984008 364.84472656 494.16113281 C365.93785156 493.72800781 367.03097656 493.29488281 368.15722656 492.84863281 C371.14442289 492.08446631 373.77299461 492.11452722 376.84472656 492.16113281 C376.80992187 491.14277344 376.77511719 490.12441406 376.73925781 489.07519531 C376.20902054 466.42378365 380.56803582 443.71753555 395.84472656 426.16113281 C361.33981355 429.36171559 322.21766739 435.43410606 293.84472656 457.16113281 C294.25722656 458.31613281 294.66972656 459.47113281 295.09472656 460.66113281 C295.6877728 462.49134729 296.26964254 464.32519511 296.84472656 466.16113281 C297.204375 467.27875 297.56402344 468.39636719 297.93457031 469.54785156 C305.39588857 495.38366175 299.80406661 522.28073292 287.03222656 545.47363281 C280.60079378 556.79744493 272.78903261 566.69875794 263.84472656 576.16113281 C263.09835937 576.97195313 262.35199219 577.78277344 261.58300781 578.61816406 C253.91649956 586.66482974 244.75438782 595.02335007 234.23876953 599.04272461 C216.71078647 606.11095446 211.09927389 620.23222982 203.79772949 636.4387207 C201.88718136 640.64354176 199.89204038 644.80874819 197.90994263 648.98017311 C196.3721022 652.22063702 194.84671841 655.46508083 193.35888672 658.72885132 C192.55523682 660.4768956 192.55523682 660.4768956 191.73535156 662.26025391 C191.27161133 663.28186615 190.80787109 664.30347839 190.33007812 665.35604858 C187.02266074 671.60210143 182.82162199 675.42932619 176.33010292 678.25616837 C171.50801707 679.50820425 166.91671808 679.45582657 161.95370483 679.45306396 C160.30487649 679.46386927 160.30487649 679.46386927 158.62273848 679.47489285 C154.93809019 679.49658657 151.25355002 679.50413629 147.56884766 679.51171875 C144.9273603 679.52429104 142.28588691 679.53763287 139.64440918 679.55189514 C133.21226507 679.58476749 126.78012666 679.60694027 120.3479263 679.62526026 C115.11646198 679.64034886 109.88502464 679.6592805 104.65358353 679.68094635 C103.90851361 679.68402818 103.16344369 679.68711 102.39579589 679.69028522 C100.88204383 679.69656223 99.36829181 679.70284766 97.85453983 679.7091414 C83.65897807 679.76770221 69.46339635 679.81408785 55.26777799 679.85634604 C43.10408816 679.8928435 30.94047634 679.93987709 18.77685547 679.99462891 C4.64081482 680.05825492 -9.49522727 680.11518015 -23.63133562 680.16161752 C-25.14130238 680.16659678 -26.65126911 680.17158501 -28.16123581 680.17658234 C-29.27551276 680.18026568 -29.27551276 680.18026568 -30.41230036 680.18402342 C-35.63055532 680.20173308 -40.84877729 680.22419214 -46.06700516 680.24852753 C-52.43671923 680.27810813 -58.80640944 680.30032854 -65.17617972 680.31333175 C-68.42223782 680.3201405 -71.66817729 680.33123309 -74.91419601 680.34908485 C-78.4436294 680.36792423 -81.97287238 680.37406843 -85.50234985 680.37713623 C-86.51385908 680.38548862 -87.5253683 680.39384101 -88.56752932 680.40244651 C-98.88320271 680.38384799 -109.59060195 679.91146213 -117.71777344 672.97363281 C-122.67282341 667.25626746 -125.82372369 661.20226374 -128.14697266 654.04077148 C-128.40672819 653.26910204 -128.66648373 652.49743259 -128.93411064 651.70237923 C-129.78582247 649.16443232 -130.62283368 646.62189237 -131.45996094 644.07910156 C-132.06178647 642.27743892 -132.6646111 640.47610974 -133.26837158 638.6750946 C-134.54235245 634.86886882 -135.8101622 631.06066998 -137.07281494 627.25067139 C-140.00350799 618.40767467 -142.9625591 609.57415469 -145.91874313 600.73965454 C-146.88640946 597.84659771 -147.8527764 594.95310918 -148.81900024 592.05957031 C-154.0642909 576.36381 -159.45682318 560.72511813 -165.02978516 545.14233398 C-169.27285905 533.23152859 -172.72686079 522.1735249 -172.59277344 509.41113281 C-172.58375 508.36836182 -172.57472656 507.32559082 -172.56542969 506.2512207 C-172.07479203 484.17082245 -162.83878941 466.30854088 -147.06152344 451.14941406 C-145.80733223 450.04685663 -144.53663585 448.96274973 -143.24902344 447.89941406 C-140.64067485 445.73390078 -138.15480654 443.45122701 -135.65527344 441.16113281 C-131.89176823 437.7284852 -128.09397993 434.34558272 -124.24902344 431.00488281 C-121.69108317 428.75236825 -119.17348364 426.45796189 -116.65527344 424.16113281 C-112.86864346 420.70785128 -109.05051024 417.3001423 -105.18261719 413.93847656 C-102.82038171 411.86753794 -100.48731491 409.76600434 -98.15527344 407.66113281 C-94.53850999 404.39722433 -90.89137735 401.17322332 -87.21777344 397.97363281 C-84.84562915 395.88902117 -82.49971279 393.77684637 -80.15527344 391.66113281 C-77.17464623 388.9712985 -74.18282111 386.29802917 -71.15527344 383.66113281 C-67.35515151 380.34742649 -63.59542122 376.99158955 -59.86230469 373.60253906 C-57.97992961 371.90487034 -56.08006579 370.22647519 -54.16699219 368.56347656 C-37.49819892 353.95671998 -26.27385603 334.53460618 -24.15527344 312.16113281 C-23.99052956 307.94946063 -23.9704889 303.73920483 -23.94995117 299.5246582 C-23.94005157 298.26542542 -23.93015198 297.00619263 -23.91995239 295.70880127 C-23.89305112 292.27339484 -23.87196213 288.83797487 -23.85195041 285.40252233 C-23.82999905 281.80571262 -23.80265536 278.20894391 -23.77589417 274.61216736 C-23.72609046 267.80901565 -23.68110621 261.00584104 -23.6378718 254.20264477 C-23.58839374 246.45411429 -23.53351499 238.70562497 -23.47819221 230.95713437 C-23.36456146 215.02517194 -23.25768167 199.09317157 -23.15527344 183.16113281 C-23.95916504 183.04721191 -24.76305664 182.93329102 -25.59130859 182.81591797 C-26.65655762 182.65397949 -27.72180664 182.49204102 -28.81933594 182.32519531 C-29.87072754 182.17002441 -30.92211914 182.01485352 -32.00537109 181.85498047 C-39.52992843 180.19750163 -45.70223585 175.80122743 -49.96777344 169.41503906 C-54.23387859 161.31785922 -55.07296791 153.07066985 -53.15527344 144.16113281 C-50.71414734 136.82727759 -46.69526105 131.32595601 -40.15527344 127.16113281 C-34.22000968 124.31996252 -29.80569247 123.16113281 -23.15527344 123.16113281 C-23.15527344 108.97113281 -23.15527344 94.78113281 -23.15527344 80.16113281 C-19.19527344 80.16113281 -15.23527344 80.16113281 -11.15527344 80.16113281 C-11.50831543 78.72390869 -11.86135742 77.28668457 -12.22509766 75.8059082 C-13.54184587 70.44433523 -14.85729491 65.0824442 -16.17236328 59.72045898 C-16.74037131 57.40526859 -17.3087258 55.09016317 -17.87744141 52.77514648 C-18.6975393 49.43658683 -19.5163671 46.09771778 -20.33496094 42.75878906 C-20.58712372 41.73342545 -20.8392865 40.70806183 -21.09909058 39.65162659 C-27.08382029 15.21554917 -27.08382029 15.21554917 -23.53027344 8.28613281 C-17.10724629 -0.1652187 -9.74079568 0.01135362 0 0 Z M-6.15527344 19.16113281 C-4.3751776 28.06161201 -2.59124074 36.88020496 -0.45605469 45.68847656 C-0.24283569 46.57764771 -0.0296167 47.46681885 0.19006348 48.38293457 C0.96769198 51.6222446 1.75022105 54.86037665 2.53222656 58.09863281 C4.28535156 65.37925781 6.03847656 72.65988281 7.84472656 80.16113281 C30.94472656 80.16113281 54.04472656 80.16113281 77.84472656 80.16113281 C79.96910156 71.39550781 82.09347656 62.62988281 84.28222656 53.59863281 C84.95181396 50.84318115 85.62140137 48.08772949 86.3112793 45.2487793 C86.84221815 43.05165751 87.37291475 40.85447715 87.90332031 38.65722656 C88.3166864 36.96200867 88.3166864 36.96200867 88.73840332 35.23254395 C89.00221802 34.13704224 89.26603271 33.04154053 89.5378418 31.9128418 C89.76656479 30.96908188 89.99528778 30.02532196 90.23094177 29.05296326 C90.92458204 25.78489588 91.37225643 22.46842373 91.84472656 19.16113281 C59.50472656 19.16113281 27.16472656 19.16113281 -6.15527344 19.16113281 Z M-4.15527344 98.16113281 C-6.1780199 106.25211868 -5.15527344 114.82113548 -5.15527344 123.16113281 C26.52472656 123.16113281 58.20472656 123.16113281 90.84472656 123.16113281 C91.3560998 110.53662708 91.3560998 110.53662708 89.84472656 98.16113281 C58.82472656 98.16113281 27.80472656 98.16113281 -4.15527344 98.16113281 Z M-34.15527344 147.16113281 C-35.68742232 150.22543057 -35.38465892 152.77769701 -35.15527344 156.16113281 C-33.84544547 159.3629345 -32.67285242 160.79924704 -29.84350586 162.77749634 C-24.34425849 164.84053315 -19.09581448 164.57827478 -13.26855469 164.54931641 C-11.97033783 164.55457336 -10.67212097 164.55983032 -9.33456421 164.56524658 C-5.78495705 164.57888713 -2.23561239 164.57363518 1.31399918 164.56410933 C5.03477925 164.55649574 8.75553737 164.56356305 12.47631836 164.56826782 C18.72383647 164.57372044 24.97124807 164.56654678 31.21875 164.55224609 C38.43405156 164.53592046 45.64909878 164.54120933 52.86439419 164.55772531 C59.06755209 164.5713543 65.27063357 164.57325295 71.47380161 164.5654093 C75.17507151 164.56074053 78.87622198 164.56008594 82.57748413 164.57001877 C86.70447774 164.58032117 90.83103522 164.56602804 94.95800781 164.54931641 C96.18000885 164.5553891 97.40200989 164.56146179 98.66104126 164.56771851 C106.68439234 164.55028651 106.68439234 164.55028651 113.84472656 161.16113281 C116.28812847 158.22905052 116.81132191 156.4729096 117.21972656 152.66113281 C116.81808154 148.91244591 116.18518877 147.08671057 113.84472656 144.16113281 C110.59519938 142.08741741 107.97884983 141.90460524 104.16506958 141.88697815 C102.42809814 141.87201546 102.42809814 141.87201546 100.65603638 141.85675049 C99.38944183 141.85608582 98.12284729 141.85542114 96.81787109 141.85473633 C95.46742292 141.8471129 94.11697908 141.83868508 92.76654053 141.82951355 C89.10119377 141.80758043 85.43593042 141.79877135 81.77052546 141.79368711 C79.47958419 141.79004232 77.18866473 141.78380164 74.89773178 141.77668571 C66.90267732 141.75219595 58.9076877 141.73914022 50.91259766 141.7355957 C43.46435009 141.73196012 36.01651451 141.70206228 28.56839287 141.66019112 C22.16995557 141.62548413 15.7716548 141.6100472 9.373124 141.60934967 C5.55320467 141.60855702 1.73370514 141.59982472 -2.08611679 141.57135201 C-5.67978366 141.54516353 -9.27268288 141.54296955 -12.86640167 141.55900764 C-14.80949221 141.56168473 -16.75256785 141.53964398 -18.69552612 141.51681519 C-25.61322856 141.57485985 -29.52520559 141.79388635 -34.15527344 147.16113281 Z M-5.15527344 182.16113281 C-5.18105469 191.78140625 -5.20683594 201.40167969 -5.23339844 211.31347656 C-5.25858584 217.43393921 -5.28477261 223.55437103 -5.31542969 229.67480469 C-5.36383028 239.37426489 -5.40832823 249.07362257 -5.42626953 258.77319336 C-5.43935978 265.83995421 -5.46650979 272.90650438 -5.5098865 279.9731465 C-5.53233741 283.70785137 -5.54819411 287.44229801 -5.54715729 291.17707634 C-5.54779678 321.10661618 -5.54779678 321.10661618 -10.15527344 335.16113281 C-10.53298889 336.32269394 -10.91070435 337.48425507 -11.29986572 338.68101501 C-18.26523161 359.0020328 -31.22177442 374.27269502 -47.15527344 388.16113281 C-48.20134766 389.07765625 -48.20134766 389.07765625 -49.26855469 390.01269531 C-50.52379005 391.10940199 -51.78159897 392.20317023 -53.04199219 393.29394531 C-55.19979209 395.20046722 -57.31442073 397.15000659 -59.42602539 399.10742188 C-63.83371811 403.19195359 -68.28318743 407.14029847 -72.96777344 410.91113281 C-76.71074917 413.92481815 -80.15205766 417.03932693 -83.49121094 420.48925781 C-85.87679435 422.88604115 -88.4278327 425.07034255 -90.98730469 427.27832031 C-93.40370295 429.37688601 -95.78056368 431.51552981 -98.15527344 433.66113281 C-101.13590064 436.35096712 -104.12772576 439.02423645 -107.15527344 441.66113281 C-111.87230221 445.77195709 -116.51097052 449.96855541 -121.15527344 454.16113281 C-122.82168195 455.6614196 -124.48834697 457.16142154 -126.15527344 458.66113281 C-126.97640625 459.40621094 -127.79753906 460.15128906 -128.64355469 460.91894531 C-130.32529371 462.42021778 -132.03167291 463.89431258 -133.76074219 465.34082031 C-144.83919159 474.76001632 -152.28956726 487.60401798 -154.15527344 502.16113281 C-155.25435684 517.12409284 -150.19958361 530.44638017 -145.44824219 544.39160156 C-144.88439324 546.05790307 -144.32095658 547.72434413 -143.75790405 549.39091492 C-142.26533473 553.80478567 -140.76693282 558.21665415 -139.26713943 562.62807465 C-137.72211926 567.17531814 -136.18207231 571.72424561 -134.64135742 576.27294922 C-131.94732692 584.22396012 -129.2484598 592.17331812 -126.54693127 600.12178421 C-124.51082223 606.11293327 -122.47909398 612.10555037 -120.44944763 618.09889221 C-119.15619804 621.91625108 -117.86039612 625.73273725 -116.56314087 629.54873657 C-116.00774568 631.18292289 -115.45301718 632.81733597 -114.89901733 634.45199585 C-113.34557591 639.03177892 -111.76391018 643.60035343 -110.15527344 648.16113281 C-109.80835449 649.18239258 -109.46143555 650.20365234 -109.10400391 651.25585938 C-108.77932129 652.15530273 -108.45463867 653.05474609 -108.12011719 653.98144531 C-107.72554321 655.10317139 -107.72554321 655.10317139 -107.32299805 656.24755859 C-105.60798926 659.05797859 -104.19129314 659.78624071 -101.15527344 661.16113281 C-97.56311147 661.60795237 -93.99126842 661.56560706 -90.37536621 661.54208374 C-88.72653639 661.5491037 -88.72653639 661.5491037 -87.04439688 661.55626547 C-83.35402016 661.5682498 -79.66401242 661.55874451 -75.97363281 661.54931641 C-73.33078422 661.55338058 -70.68796122 661.55861288 -68.04512024 661.56524658 C-61.60778489 661.57858962 -55.17055444 661.57570367 -48.73321497 661.56700866 C-43.50167455 661.56023476 -38.27016354 661.55931412 -33.03862 661.56258011 C-32.29416889 661.56303981 -31.54971778 661.56349951 -30.78270754 661.56397314 C-29.27039086 661.56493231 -27.75807419 661.56590495 -26.24575752 661.56689091 C-12.06324031 661.57544647 2.11921873 661.56560807 16.3017264 661.54948981 C28.47217616 661.53608647 40.64254007 661.53841452 52.81298828 661.55224609 C66.94459684 661.56829898 81.07615442 661.57462248 95.20777082 661.5654093 C96.71453825 661.56445365 98.22130568 661.56351054 99.72807312 661.56258011 C100.84012386 661.56188587 100.84012386 661.56188587 101.97464028 661.5611776 C107.20017241 661.55858684 112.42567222 661.56296057 117.65119934 661.57001877 C124.01899395 661.57843073 130.38667761 661.57616008 136.7544595 661.56017654 C140.0037141 661.55228962 143.25274534 661.55082286 146.50200462 661.55912399 C150.02312886 661.56729181 153.54372873 661.55707492 157.06481934 661.54208374 C158.09350962 661.54877591 159.12219991 661.55546807 160.18206263 661.56236303 C167.03055988 661.5468906 167.03055988 661.5468906 172.84472656 658.16113281 C174.26171172 655.64987133 175.41755923 653.29905937 176.53222656 650.66113281 C177.21427164 649.12802856 177.90064986 647.59684641 178.59082031 646.06738281 C178.95159668 645.266875 179.31237305 644.46636719 179.68408203 643.64160156 C182.03899449 638.6088059 184.70576127 633.7354028 187.34350586 628.84667969 C190.09238203 623.71559276 192.55207128 618.51171589 194.84472656 613.16113281 C193.85214844 613.11214844 192.85957031 613.06316406 191.83691406 613.01269531 C182.73788206 612.5250863 173.84886493 611.61023633 164.84472656 610.16113281 C164.31363281 611.24652344 163.78253906 612.33191406 163.23535156 613.45019531 C162.52202746 614.8956152 161.80847356 616.3409217 161.09472656 617.78613281 C160.74667969 618.49898437 160.39863281 619.21183594 160.04003906 619.94628906 C154.01353572 632.11089767 154.01353572 632.11089767 147.89356911 634.56155324 C144.16422413 635.6529202 140.47526071 635.57286055 136.61534119 635.54208374 C135.70704498 635.54676371 134.79874878 635.55144368 133.86292845 635.55626547 C130.83058795 635.56819631 127.79870098 635.55876565 124.76635742 635.54931641 C122.58789304 635.55338292 120.40943071 635.55872525 118.23097229 635.56524658 C112.32202998 635.57891559 106.41324492 635.57362337 100.50429988 635.56410933 C94.3198026 635.55651161 88.13531874 635.56355857 81.95082092 635.56826782 C71.56639184 635.57372462 61.18202678 635.56653527 50.79760742 635.55224609 C38.79091808 635.53591547 26.78440685 635.54121144 14.77771848 635.55772531 C4.46842609 635.57133715 -5.84082029 635.57326143 -16.15011877 635.5654093 C-22.30722301 635.5607317 -28.46425542 635.56011048 -34.62135506 635.57001877 C-40.40882971 635.57868185 -46.19610722 635.57267836 -51.98356056 635.555336 C-54.10800601 635.55136785 -56.23246803 635.55251079 -58.35690689 635.55912399 C-61.25578614 635.56731632 -64.1540328 635.55704563 -67.0528717 635.54208374 C-67.89441034 635.54877591 -68.73594897 635.55546807 -69.60298878 635.56236303 C-74.52854751 635.51302034 -77.88204143 634.8712378 -82.15527344 632.16113281 C-86.0052962 628.22856453 -88.03044588 624.66591786 -89.77075195 619.47583008 C-89.98938904 618.83580551 -90.20802612 618.19578094 -90.43328857 617.53636169 C-91.1465598 615.43754748 -91.84059721 613.33293332 -92.53417969 611.22753906 C-93.03208518 609.74712481 -93.5310414 608.26706358 -94.0309906 606.78733826 C-95.07530406 603.68747076 -96.11082268 600.58485868 -97.1394043 597.47973633 C-98.44377458 593.54247795 -99.76353535 589.61061852 -101.0893259 585.68052769 C-102.12048921 582.62142633 -103.14628074 579.56054595 -104.17027092 576.49903679 C-104.65450638 575.05139523 -105.13960909 573.60404341 -105.62567329 572.15701485 C-108.08238474 564.8262763 -110.435891 557.47428107 -112.5065918 550.02416992 C-112.83485458 548.84640488 -113.16311737 547.66863983 -113.50132751 546.45518494 C-114.71195459 540.35702216 -113.83128306 535.25095424 -110.88183594 529.81347656 C-107.48236907 524.85816905 -103.94683681 522.16806832 -98.0597353 520.60461521 C-93.9496848 519.97705143 -89.89854922 520.00748722 -85.74638367 520.00291443 C-84.7947274 519.99797645 -83.84307112 519.99303847 -82.86257678 519.98795086 C-79.67197677 519.97258594 -76.48139686 519.96421793 -73.29077148 519.95581055 C-71.00434696 519.94623124 -68.7179242 519.93622112 -66.4315033 519.92581177 C-60.22126495 519.8987624 -54.011019 519.87775297 -47.80075431 519.85780978 C-41.31180163 519.83595046 -34.82287238 519.8085615 -28.3339386 519.78175354 C-17.4416301 519.73750099 -6.5493137 519.69666585 4.34301758 519.65844727 C15.5614516 519.6190751 26.77987492 519.57764476 37.99829102 519.53344727 C38.68996037 519.53072299 39.38162973 519.52799872 40.09425876 519.5251919 C43.56421026 519.51151213 47.03416159 519.49779192 50.50411284 519.48405159 C79.28429486 519.37014 108.06450087 519.26339171 136.84472656 519.16113281 C137.15111053 518.50530716 137.45749451 517.84948151 137.77316284 517.17378235 C139.18410675 514.16273892 140.60418134 511.15608666 142.02441406 508.14941406 C142.50612061 507.11788208 142.98782715 506.0863501 143.48413086 505.02355957 C149.02049713 493.33954897 155.97893221 483.77471832 164.83691406 474.34472656 C166.89837299 472.16578631 166.89837299 472.16578631 168.77050781 469.66503906 C171.02193902 466.94720968 173.40776102 464.87003865 176.15722656 462.66113281 C177.12015625 461.88511719 178.08308594 461.10910156 179.07519531 460.30957031 C181.33397029 458.55734713 183.61072378 456.89787385 185.96972656 455.28613281 C189.08014095 453.41313217 189.08014095 453.41313217 189.84472656 450.16113281 C189.29650742 449.61513428 188.74828827 449.06913574 188.18345642 448.5065918 C182.9882849 443.33155335 177.79559581 438.1540421 172.6055975 432.97381592 C169.93802774 430.31143917 167.2695468 427.64998992 164.59887695 424.99072266 C162.01603067 422.41883368 159.43571734 419.84442732 156.85705757 417.26834106 C155.87848145 416.29159625 154.89903363 415.31572387 153.91865349 414.34078979 C148.88623747 409.33519103 143.99037351 404.28932839 139.36836243 398.90170288 C137.18368029 396.40596724 134.83253061 394.10767751 132.44628906 391.80566406 C131.46146054 390.84323729 130.4771004 389.88033106 129.49316406 388.91699219 C127.98874117 387.44932785 126.48157612 385.98501492 124.96582031 384.52905273 C115.35204552 375.27453943 107.35949885 365.27998253 101.53222656 353.16113281 C101.04278564 352.1601355 101.04278564 352.1601355 100.54345703 351.13891602 C93.80944968 336.98200461 91.55254057 322.70640814 91.52587891 307.15258789 C91.51655824 305.78151879 91.50638647 304.41045526 91.49543762 303.03939819 C91.46836422 299.35216235 91.45305628 295.66496421 91.44000959 291.97765565 C91.42427877 288.11125553 91.39752081 284.24493132 91.37197876 280.37858582 C91.32536587 273.07266688 91.28853766 265.76673338 91.25530589 258.46074265 C91.20977691 248.57716524 91.14896847 238.69368227 91.08905792 228.81018353 C90.99520037 213.26054752 90.92161537 197.71088344 90.84472656 182.16113281 C59.16472656 182.16113281 27.48472656 182.16113281 -5.15527344 182.16113281 Z M266.84472656 349.16113281 C293.89075349 381.90106014 333.71661205 401.46975054 375.47753906 406.86425781 C378.9511974 407.17052003 382.35944547 407.21434321 385.84472656 407.16113281 C379.0158152 394.14661332 364.87153476 384.10015097 352.84472656 376.16113281 C352.24192871 375.76200684 351.63913086 375.36288086 351.01806641 374.95166016 C331.61031361 362.29986965 309.60985206 354.22308596 286.84472656 350.16113281 C286.11382812 350.02964844 285.38292969 349.89816406 284.62988281 349.76269531 C278.74228349 348.87172936 272.78096558 349.07208923 266.84472656 349.16113281 Z M475.84472656 397.16113281 C461.46559578 440.41219417 463.65465586 485.98566925 483.81347656 527.16113281 C484.15378906 527.82113281 484.49410156 528.48113281 484.84472656 529.16113281 C486.97179864 528.36594182 486.97179864 528.36594182 487.57495117 526.46899414 C500.66108215 483.13217752 498.13432862 437.69071685 476.84472656 397.16113281 C476.51472656 397.16113281 476.18472656 397.16113281 475.84472656 397.16113281 Z M174.28222656 490.22363281 C163.31145929 503.35258381 155.86076545 517.85698055 150.84472656 534.16113281 C150.41546875 535.52238281 150.41546875 535.52238281 149.97753906 536.91113281 C146.57875678 550.32002731 147.77184671 565.49564576 154.16503906 577.67675781 C158.9666755 585.60076985 165.69533583 590.58182008 174.48144531 593.46191406 C193.78126282 597.47430353 212.61658905 591.62946198 228.84472656 581.16113281 C233.36464071 578.05376921 237.62313176 574.65902565 241.84472656 571.16113281 C243.00294922 570.21560547 243.00294922 570.21560547 244.18457031 569.25097656 C248.89699993 565.28023453 252.96697445 560.94451705 256.84472656 556.16113281 C257.5446875 555.29875 258.24464844 554.43636719 258.96582031 553.54785156 C273.52164855 534.90529166 284.93865412 511.42410295 282.84472656 487.16113281 C281.10829282 475.10823977 276.83914864 465.65037993 267.29394531 457.85644531 C236.29004495 436.39601029 194.51738776 466.98000731 174.28222656 490.22363281 Z M349.20507812 526.71142578 C329.23065336 547.99788204 322.81457247 578.90543153 323.49707031 607.18066406 C324.33962581 625.94337847 329.77590767 643.87201082 340.84472656 659.16113281 C341.56789063 660.16080078 341.56789063 660.16080078 342.30566406 661.18066406 C348.91220021 669.55745989 358.83397916 674.93448712 369.34472656 676.54394531 C381.29449494 677.11845341 390.93975069 671.59374384 399.84472656 664.16113281 C400.48023438 663.6390625 401.11574219 663.11699219 401.77050781 662.57910156 C421.1744862 644.95939705 428.58378199 615.25112762 429.84472656 590.16113281 C430.5828402 565.13530927 424.17269169 539.70560311 406.87597656 521.03613281 C399.80248335 514.31051632 391.21490224 510.55106657 381.46582031 510.09472656 C368.20772842 510.43062457 358.1938629 517.52723264 349.20507812 526.71142578 Z M-96.15527344 538.16113281 C-95.45938206 545.45208582 -95.45938206 545.45208582 -93.69995117 552.13232422 C-93.4055162 552.99838287 -93.11108124 553.86444153 -92.807724 554.75674438 C-92.48800125 555.66620819 -92.1682785 556.575672 -91.83886719 557.51269531 C-91.5041188 558.4886264 -91.16937042 559.4645575 -90.82447815 560.47006226 C-89.75594402 563.57849987 -88.67460927 566.68230295 -87.59277344 569.78613281 C-86.89335791 571.8144865 -86.19478382 573.84313054 -85.49707031 575.87207031 C-83.39582692 581.97285722 -81.27670483 588.06734232 -79.15527344 594.16113281 C-78.38450166 596.37822003 -77.61383189 598.59534271 -76.84326172 600.8125 C-74.94874022 606.26255806 -73.05252784 611.71202561 -71.15527344 617.16113281 C-57.50362653 617.91412786 -43.90923162 618.3041258 -30.23803711 618.2746582 C-28.35319012 618.27437507 -26.46834302 618.27453652 -24.58349609 618.27510071 C-19.54150204 618.27538375 -14.49953252 618.26956792 -9.45754409 618.26252675 C-4.16052489 618.25621 1.13649507 618.25568291 6.43351746 618.25450134 C16.430751 618.25141228 26.4279734 618.2432321 36.42520207 618.23315185 C47.82087581 618.22191474 59.21655012 618.21646125 70.61222804 618.21145642 C94.02306702 618.20104704 117.43389616 618.18349532 140.84472656 618.16113281 C142.21409157 615.75200926 143.5651465 613.33539096 144.90722656 610.91113281 C145.29716797 610.22921875 145.68710937 609.54730469 146.08886719 608.84472656 C146.45302734 608.18085937 146.8171875 607.51699219 147.19238281 606.83300781 C147.53277588 606.22553711 147.87316895 605.61806641 148.22387695 604.9921875 C149.01760304 602.65127298 148.69587282 601.45502922 147.84472656 599.16113281 C146.65065405 597.59600506 145.39227505 596.07910637 144.09472656 594.59863281 C130.42693233 577.94788528 130.84472656 559.1000966 130.84472656 538.16113281 C55.93472656 538.16113281 -18.97527344 538.16113281 -96.15527344 538.16113281 Z " fill="#000000" transform="translate(200.1552734375,16.8388671875)"/>
<path d="M0 0 C4.79833434 3.87557774 9.42907477 7.92483886 13 13 C13 15 13 15 11.7421875 16.3046875 C11.12601562 16.82289063 10.50984375 17.34109375 9.875 17.875 C8.77865234 18.80892578 8.77865234 18.80892578 7.66015625 19.76171875 C6.78230469 20.50035156 5.90445313 21.23898437 5 22 C2.76687053 23.89120139 0.53851074 25.78792597 -1.6875 27.6875 C-2.28530273 28.19740479 -2.88310547 28.70730957 -3.49902344 29.23266602 C-8.276834 33.33020494 -12.9182662 37.5588939 -17.52392578 41.84814453 C-20.92506754 45.01522922 -24.37380312 48.10784426 -27.89453125 51.140625 C-29.62580576 52.66954275 -31.32300392 54.22164767 -33.01171875 55.796875 C-33.54595459 56.29372803 -34.08019043 56.79058105 -34.63061523 57.30249023 C-35.68716655 58.28768093 -36.74024195 59.27661645 -37.78930664 60.26977539 C-40.37005608 62.67298361 -42.72250821 64.64998552 -46 66 C-50.58146674 61.61869443 -54.72905967 57.45156722 -58 52 C-53.54824916 47.44169129 -49.01990146 43.05909501 -44.1875 38.90625 C-41.64488601 36.69054352 -39.16889802 34.40901408 -36.6875 32.125 C-33.12865889 28.87371306 -29.51480381 25.75960542 -25.75 22.75 C-20.32309327 18.37875956 -15.26295796 13.66831954 -10.21386719 8.87207031 C-6.91910163 5.74951117 -3.60203122 2.77342708 0 0 Z " fill="#000000" transform="translate(190,404)"/>
<path d="M0 0 C3.42946293 1.61674681 6.56263052 3.57597677 9.75 5.625 C11.22726562 6.57246094 11.22726562 6.57246094 12.734375 7.5390625 C13.48203125 8.02117188 14.2296875 8.50328125 15 9 C14.42246199 12.60485266 13.44961236 15.31401357 11.6875 18.5 C6.22127559 29.08387799 4.04632485 40.09773242 3.4375 51.875 C3.39431641 52.65875 3.35113281 53.4425 3.30664062 54.25 C3.20146649 56.16650649 3.10032075 58.08323333 3 60 C0.37518273 60.33482863 -2.24983387 60.6679277 -4.875 61 C-5.99455078 61.14308594 -5.99455078 61.14308594 -7.13671875 61.2890625 C-12.7734375 62 -12.7734375 62 -15 62 C-20.32850294 51.34299413 -14.58341951 32.64434028 -11.10327148 21.79663086 C-8.45875898 14.022205 -5.1126049 6.4739494 0 0 Z " fill="#000000" transform="translate(557,564)"/>
<path d="M0 0 C5.14017188 2.93724107 9.30210447 6.62520423 12 12 C11.85401281 14.72161833 11.24805873 15.74069278 9.36328125 17.7109375 C8.68652344 18.26007813 8.00976562 18.80921875 7.3125 19.375 C3.6641465 22.41858139 0.31708382 25.59998908 -3 29 C-6.78671666 27.45049295 -9.06455913 25.11710363 -11.8125 22.125 C-12.62332031 21.26132812 -13.43414062 20.39765625 -14.26953125 19.5078125 C-16 17 -16 17 -15.98828125 14.92578125 C-12.6949605 8.50836176 -5.86711431 3.91140954 0 0 Z " fill="#000000" transform="translate(111,475)"/>
<path d="M0 0 C1.96381219 1.60837107 3.19430073 3.13581857 4.5390625 5.2890625 C4.97863281 5.96710937 5.41820312 6.64515625 5.87109375 7.34375 C6.7265625 9.4140625 6.7265625 9.4140625 6.7109375 11.34375 C5.22429888 14.47041059 2.74412518 16.4479787 0.1640625 18.6640625 C-0.35607422 19.12296875 -0.87621094 19.581875 -1.41210938 20.0546875 C-2.69239305 21.1822768 -3.98202548 22.29923565 -5.2734375 23.4140625 C-9.80700548 21.94039706 -11.42262516 18.35311019 -13.5859375 14.4140625 C-13.95783203 13.77210938 -14.32972656 13.13015625 -14.71289062 12.46875 C-15.63788822 10.82201312 -16.46408196 9.12061062 -17.2734375 7.4140625 C-15.69414297 4.25547344 -12.56309835 3.51093033 -9.4609375 2.1640625 C-8.51637695 1.72320313 -8.51637695 1.72320313 -7.55273438 1.2734375 C-2.91459715 -0.75118483 -2.91459715 -0.75118483 0 0 Z " fill="#000000" transform="translate(564.2734375,642.5859375)"/>
</svg>
