<?xml version="1.0" standalone="no"?>
<!DOCTYPE svg PUBLIC "-//W3C//DTD SVG 20010904//EN"
 "http://www.w3.org/TR/2001/REC-SVG-20010904/DTD/svg10.dtd">
<svg version="1.0" xmlns="http://www.w3.org/2000/svg"
 width="4203.000000pt" height="5000.000000pt" viewBox="0 0 4203.000000 5000.000000"
 preserveAspectRatio="xMidYMid meet">

<g transform="translate(0.000000,5000.000000) scale(0.100000,-0.100000)"
fill="#000000" stroke="none">
<path d="M7361 49415 c-251 -26 -435 -60 -766 -140 -636 -155 -1190 -427
-1640 -804 -116 -97 -354 -334 -432 -431 -184 -229 -327 -458 -403 -647 l-45
-112 -70 -20 c-160 -48 -505 -110 -978 -176 -340 -47 -421 -62 -670 -120 -320
-76 -510 -155 -716 -300 -152 -106 -239 -190 -315 -299 -127 -184 -176 -295
-233 -527 -34 -140 -37 -166 -37 -289 1 -119 5 -153 37 -288 25 -106 50 -181
80 -245 52 -108 169 -275 267 -380 104 -111 361 -302 474 -352 93 -41 298
-102 496 -149 372 -87 578 -113 1195 -151 699 -44 1229 -106 1545 -181 330
-78 688 -226 926 -383 50 -33 136 -103 191 -155 91 -87 104 -104 150 -198 102
-206 118 -297 117 -648 -1 -341 -34 -651 -109 -1025 -122 -608 -433 -1425
-847 -2225 -285 -549 -484 -894 -1606 -2770 -495 -829 -588 -992 -782 -1385
-450 -909 -729 -1712 -964 -2775 -312 -1409 -335 -2820 -70 -4230 268 -1418
816 -2756 1619 -3945 224 -332 484 -682 708 -950 451 -540 942 -1065 1302
-1394 811 -739 1693 -1339 2700 -1836 826 -407 1579 -668 2579 -890 691 -153
1228 -217 2006 -236 785 -20 1394 -3 1853 51 93 11 173 20 178 20 5 0 9 -21 9
-47 0 -26 16 -115 36 -200 28 -123 44 -168 80 -234 89 -160 298 -455 514 -724
386 -482 642 -929 840 -1470 97 -267 157 -502 199 -790 98 -668 92 -1379 -20
-2415 -176 -1630 -447 -3555 -715 -5070 -112 -636 -364 -1933 -400 -2062 l-16
-58 -77 -29 c-140 -54 -274 -90 -496 -135 -468 -95 -961 -224 -1232 -322 -556
-200 -995 -468 -1354 -824 -222 -221 -368 -415 -544 -725 -154 -269 -191 -352
-230 -513 -57 -235 -60 -269 -25 -412 39 -157 79 -252 147 -348 72 -100 132
-163 217 -223 85 -60 137 -80 346 -131 l165 -41 1580 -9 c2004 -11 2657 -7
2775 16 298 58 535 133 689 218 253 138 619 373 843 541 l127 95 25 -109 c37
-157 77 -253 148 -355 102 -146 222 -248 343 -293 80 -30 321 -87 420 -100
121 -15 4777 -26 4920 -11 186 19 480 92 590 147 152 77 485 368 675 592 400
472 610 903 784 1612 89 363 123 544 226 1209 617 3981 1400 8334 1921 10675
55 245 110 469 288 1160 107 413 144 622 161 912 18 297 -8 546 -95 899 -107
437 -213 653 -612 1248 -100 149 -180 272 -178 274 1 2 60 17 129 33 290 68
406 127 776 393 184 132 349 256 493 373 70 57 130 103 132 103 3 0 5 -36 5
-79 0 -44 5 -115 11 -158 17 -129 76 -352 112 -427 54 -113 178 -279 245 -328
116 -86 158 -105 315 -145 149 -37 155 -38 327 -37 166 2 183 4 323 38 81 21
178 48 215 62 231 87 556 312 757 526 92 97 203 235 295 365 l65 92 41 -82
c23 -45 76 -129 117 -186 65 -89 89 -113 178 -178 146 -105 215 -138 387 -180
116 -28 173 -37 272 -40 117 -5 134 -3 272 31 169 41 219 63 343 156 157 118
282 261 462 530 275 412 487 907 648 1507 l38 142 74 -99 c41 -55 111 -137
156 -183 75 -76 257 -220 349 -276 45 -27 283 -89 391 -101 138 -16 387 21
492 73 57 28 211 136 275 193 86 77 223 272 296 419 85 170 185 478 274 840
150 611 205 1001 219 1553 l6 253 65 -88 c177 -239 387 -384 654 -448 143 -35
224 -33 402 10 156 37 246 76 351 151 143 102 310 358 382 586 43 135 107 421
126 558 34 247 28 976 -11 1390 -55 584 -241 1363 -467 1961 l-25 67 76 -53
c114 -78 168 -102 310 -137 162 -41 284 -42 438 -5 121 30 179 58 297 145 73
53 105 86 168 171 105 141 132 196 162 326 63 273 58 666 -14 1020 -143 708
-366 1262 -772 1925 -687 1119 -1608 2053 -2927 2966 -1582 1095 -3643 2003
-6235 2744 -767 219 -1499 408 -2140 550 -2477 550 -4835 554 -7340 14 -1559
-337 -2974 -791 -4615 -1482 -287 -121 -358 -159 -710 -385 -821 -527 -1523
-1080 -2150 -1692 -113 -111 -277 -263 -365 -340 -209 -182 -561 -534 -760
-760 -87 -99 -274 -297 -415 -440 -141 -143 -305 -316 -365 -385 -60 -69 -217
-235 -350 -370 -133 -135 -324 -339 -426 -455 -538 -613 -1023 -1070 -1399
-1320 -231 -153 -439 -263 -642 -339 -173 -64 -195 -68 -425 -73 l-212 -5 -70
32 c-81 38 -122 83 -176 195 -66 137 -70 165 -70 510 0 335 8 439 56 728 78
466 296 1059 651 1767 182 365 296 575 643 1180 416 727 580 1025 827 1504
858 1668 1384 3120 1703 4701 155 771 218 1335 218 1960 0 590 -49 1038 -174
1578 -178 772 -392 1286 -745 1794 -138 198 -438 541 -602 687 -299 267 -669
508 -1002 655 -342 149 -835 282 -1270 342 -203 27 -751 36 -959 14z m789
-1259 c188 -24 298 -45 426 -81 313 -91 653 -247 930 -429 210 -139 482 -388
605 -556 277 -377 532 -967 633 -1465 180 -890 141 -2147 -105 -3345 -158
-767 -474 -1710 -877 -2615 -218 -491 -718 -1488 -1115 -2225 -105 -196 -190
-344 -745 -1310 -703 -1221 -1004 -1820 -1126 -2235 -45 -156 -102 -399 -122
-528 -22 -139 -22 -440 0 -612 41 -327 174 -962 238 -1143 140 -398 504 -804
840 -939 107 -43 330 -104 513 -139 110 -22 372 -24 490 -5 104 17 396 85 505
118 147 44 409 164 615 281 386 220 895 593 1275 936 304 274 1025 1002 1275
1286 60 69 204 222 320 340 116 118 283 296 370 395 191 216 1472 1501 1705
1710 160 143 575 481 830 676 714 546 1749 1165 2588 1545 815 371 1781 687
2697 885 676 146 1299 238 1915 284 842 61 2149 57 2995 -10 803 -64 2080
-281 2995 -510 1982 -495 3904 -1215 5890 -2207 1169 -584 1889 -1054 2628
-1716 92 -82 199 -175 237 -207 100 -83 232 -214 339 -335 576 -657 993 -1327
1237 -1986 53 -145 123 -373 116 -380 -4 -5 -660 555 -972 830 -429 377 -923
751 -1332 1007 -442 277 -1014 561 -1231 613 l-97 22 -92 -21 c-169 -40 -264
-134 -298 -299 -18 -84 -18 -86 4 -177 24 -104 45 -143 166 -304 85 -114 114
-142 293 -284 501 -399 1004 -952 1376 -1516 504 -761 902 -1627 1130 -2455
74 -271 141 -622 166 -870 11 -102 27 -1045 19 -1085 -5 -22 -222 290 -621
895 -129 195 -336 508 -459 695 -576 871 -929 1288 -1360 1607 -224 165 -263
188 -369 214 -125 30 -170 30 -290 2 -75 -17 -107 -30 -150 -62 -30 -22 -61
-47 -67 -55 -49 -62 -66 -98 -85 -177 l-21 -88 22 -94 22 -95 214 -319 c118
-175 251 -380 295 -455 304 -520 540 -1139 740 -1945 109 -436 149 -752 157
-1223 11 -662 -49 -1121 -226 -1708 -28 -92 -58 -184 -67 -205 -15 -36 -16
-36 -30 -17 -32 43 -125 237 -177 370 -67 172 -87 233 -327 1010 -311 1011
-406 1287 -521 1520 -97 196 -223 368 -422 571 -192 197 -245 235 -361 259
-83 18 -86 18 -176 -3 -164 -39 -253 -128 -291 -290 l-20 -90 35 -168 c269
-1284 329 -2291 190 -3194 -60 -393 -149 -702 -317 -1100 -59 -141 -228 -485
-247 -504 -7 -7 -10 20 -10 74 0 102 -15 346 -36 600 -45 555 -191 1611 -270
1965 -47 208 -69 265 -136 361 -99 139 -173 194 -303 224 l-89 21 -89 -21
c-109 -25 -177 -69 -234 -155 -48 -71 -75 -179 -93 -370 -52 -562 -125 -1048
-201 -1335 -47 -176 -174 -555 -251 -750 -123 -310 -299 -643 -440 -833 -25
-35 -79 -99 -118 -143 -76 -84 -231 -226 -238 -219 -6 6 16 315 43 605 53 554
65 830 65 1463 0 456 -1 482 -22 565 -38 157 -131 254 -279 292 -41 11 -87 20
-104 20 -56 0 -177 -39 -227 -72 -95 -64 -229 -286 -308 -513 -117 -333 -263
-588 -501 -875 -132 -159 -684 -713 -884 -887 -160 -141 -256 -200 -555 -350
-251 -125 -279 -149 -295 -254 -9 -60 -40 -83 -67 -49 -32 39 -118 191 -338
595 -375 686 -469 835 -637 1002 l-103 102 74 66 c150 135 315 355 376 502 53
128 88 282 95 429 21 398 -99 974 -314 1503 -28 69 -49 126 -47 129 3 2 100
-22 218 -53 417 -113 593 -148 819 -165 217 -16 434 9 664 75 199 58 294 113
416 241 134 141 203 263 252 442 30 114 31 122 31 337 0 292 -26 480 -111 820
-92 370 -247 757 -486 1210 -49 94 -101 189 -114 213 -14 24 -24 44 -22 46 2
2 56 -3 119 -10 537 -63 812 -69 1000 -20 137 36 204 69 342 168 153 109 165
120 226 202 72 96 116 191 149 322 25 100 27 126 28 304 0 222 -13 309 -90
619 -137 546 -387 1046 -798 1601 -209 282 -409 511 -688 786 -221 217 -329
314 -565 505 -99 79 -222 179 -274 223 -231 193 -633 478 -920 653 -735 447
-1617 804 -2555 1033 -758 185 -1232 251 -1910 267 -370 8 -819 -15 -1190 -62
-468 -60 -1057 -195 -1629 -374 -1125 -352 -2191 -980 -3070 -1808 -565 -533
-1113 -1257 -1428 -1888 -39 -77 -79 -152 -89 -167 -11 -15 -38 -64 -60 -110
-23 -45 -58 -107 -79 -138 -81 -119 -124 -247 -135 -400 -5 -62 -19 -135 -41
-209 -46 -153 -127 -482 -164 -668 -159 -804 -154 -1629 16 -2458 215 -1047
591 -1907 1186 -2707 466 -627 1085 -1202 1863 -1730 723 -491 1468 -861 2115
-1052 276 -81 616 -157 875 -195 330 -48 441 -55 870 -55 363 0 431 2 594 22
551 68 1043 206 1408 397 298 155 496 373 564 622 37 134 26 426 -24 666 -8
37 -13 67 -11 67 2 0 91 -25 197 -55 106 -30 312 -84 457 -120 277 -69 405
-112 478 -158 55 -36 74 -78 176 -387 170 -513 342 -890 608 -1335 103 -172
298 -469 412 -629 78 -109 78 -110 81 -179 2 -59 7 -75 35 -115 648 -916 765
-1097 921 -1417 106 -217 172 -406 194 -552 36 -243 29 -493 -21 -743 -14 -69
-85 -363 -159 -655 -224 -886 -323 -1323 -529 -2360 -621 -3122 -1185 -6339
-1656 -9455 -93 -617 -129 -793 -212 -1050 -103 -319 -254 -621 -411 -818 -89
-112 -326 -351 -371 -374 -38 -20 -53 -20 -2010 -8 -1084 6 -2037 12 -2118 13
l-147 2 115 152 c115 153 235 275 359 368 198 148 565 307 895 389 58 14 317
64 575 111 651 118 980 196 1115 265 74 38 206 138 268 205 32 34 93 109 134
166 82 113 94 143 158 398 103 412 373 1704 495 2365 185 1006 306 1802 630
4161 234 1697 239 1750 256 2430 16 703 -10 976 -146 1530 -92 372 -189 641
-350 964 -152 305 -319 569 -580 916 -664 884 -1413 1505 -2790 2312 -566 332
-953 572 -1490 922 -674 440 -732 472 -939 521 -165 39 -269 40 -414 5 -56
-14 -121 -34 -145 -46 -85 -43 -245 -170 -372 -295 -208 -204 -306 -281 -515
-406 -452 -272 -1037 -484 -1645 -597 -443 -82 -933 -136 -1488 -162 -327 -15
-1171 -6 -1437 15 -1327 108 -2310 348 -3495 853 -772 329 -1406 714 -2170
1316 -290 229 -400 327 -814 727 -725 700 -1217 1297 -1684 2041 -664 1060
-1154 2307 -1341 3414 -85 501 -116 941 -116 1635 0 561 15 834 71 1270 133
1039 463 2058 1054 3255 291 589 512 979 1060 1875 1828 2987 2061 3446 2248
4415 59 302 77 564 85 1237 10 754 4 833 -83 1182 -71 286 -132 418 -307 665
-106 149 -238 281 -408 408 -508 380 -890 546 -1679 728 -405 93 -961 165
-1521 195 -107 6 -280 15 -385 21 -290 15 -400 32 -524 81 -155 60 -521 249
-521 268 0 16 75 67 155 107 175 88 248 104 890 198 705 103 1074 173 1238
235 77 29 194 108 280 189 98 92 171 201 330 487 126 225 260 404 443 588 236
237 465 393 794 539 320 142 579 204 1010 241 99 9 581 -4 690 -18z m15140
-13820 c621 -57 1092 -152 1630 -328 851 -279 1642 -715 2306 -1271 311 -259
756 -692 902 -874 198 -250 343 -512 432 -783 21 -63 41 -135 45 -159 l7 -44
-78 7 c-114 10 -182 28 -429 111 -237 79 -437 157 -945 368 -745 308 -1197
466 -1701 592 -371 94 -710 154 -1044 187 -183 18 -1083 18 -1143 0 -52 -16
-107 -69 -123 -119 -6 -21 -14 -94 -16 -163 -7 -183 17 -268 91 -317 30 -20
82 -31 321 -74 463 -81 1038 -288 1510 -542 377 -203 639 -383 1020 -701 522
-436 849 -835 1144 -1399 182 -347 332 -752 402 -1088 l30 -147 -24 -88 -24
-89 -39 3 c-66 6 -333 78 -521 140 -472 158 -982 393 -1848 852 -209 111 -555
291 -770 400 -807 411 -951 465 -1235 465 -80 0 -157 -3 -172 -7 -36 -11 -85
-53 -105 -92 -20 -38 -22 -150 -4 -186 58 -108 319 -375 626 -639 766 -658
1280 -1284 1614 -1966 232 -472 346 -863 387 -1324 l6 -74 -193 6 c-731 24
-1482 224 -2264 601 -400 193 -670 359 -1248 763 -586 412 -569 400 -629 428
-29 13 -71 27 -94 31 -130 19 -238 -92 -220 -225 13 -92 127 -394 254 -667
263 -571 707 -1246 1245 -1894 107 -128 199 -265 185 -274 -7 -5 -295 -86
-340 -96 -205 -44 -506 -65 -743 -51 -315 19 -575 65 -898 157 -1182 339
-1975 781 -2702 1509 -263 264 -455 498 -660 805 -158 238 -261 419 -395 694
-393 806 -550 1516 -525 2376 13 453 55 776 140 1068 176 606 471 1163 900
1697 279 348 708 802 945 1001 345 290 725 531 1255 799 370 187 692 308 1091
410 398 103 989 191 1499 225 207 13 942 5 1145 -14z m-4226 -15174 c143 -141
326 -310 406 -376 161 -131 935 -715 1160 -875 162 -115 239 -185 277 -249 24
-41 26 -49 20 -135 -11 -163 -35 -254 -202 -752 -423 -1263 -595 -1976 -1095
-4535 -439 -2246 -853 -4642 -1185 -6855 -30 -203 -62 -406 -71 -449 -43 -214
-186 -540 -325 -741 -95 -137 -297 -342 -446 -453 -232 -173 -590 -351 -829
-412 -180 -46 -317 -55 -879 -55 -579 0 -2426 22 -2622 31 l-123 6 53 76 c65
95 235 273 341 358 147 118 396 255 641 352 282 112 615 203 1195 328 426 91
743 168 823 198 73 28 198 110 261 173 60 59 185 240 224 323 102 219 156 429
316 1235 304 1530 434 2281 610 3520 174 1224 430 3353 481 4001 40 512 40
1012 -1 1404 -41 402 -159 926 -289 1286 -202 557 -586 1208 -1071 1816 -57
71 -104 133 -104 136 0 4 111 33 246 65 267 63 487 124 677 188 423 141 837
349 1147 578 52 38 97 70 99 70 2 1 121 -115 265 -257z m3201 -1283 c453 -389
832 -815 1087 -1224 244 -389 448 -868 512 -1200 74 -385 90 -1040 41 -1635
-38 -449 -54 -572 -345 -2600 -409 -2849 -530 -3559 -853 -5034 l-103 -470
-114 -33 c-63 -18 -344 -78 -625 -134 -880 -173 -1114 -241 -1484 -429 -257
-130 -595 -369 -805 -569 -37 -36 -56 -49 -52 -36 56 195 113 507 221 1210
392 2547 634 3937 1111 6365 193 987 385 1943 430 2150 144 656 344 1358 654
2295 76 231 148 456 159 500 100 404 107 561 42 838 -17 71 -31 131 -31 134 0
4 10 -2 23 -13 12 -11 71 -63 132 -115z"/>
<path d="M7150 47364 c-76 -15 -292 -67 -335 -81 -119 -38 -332 -225 -437
-383 -97 -146 -156 -341 -145 -474 8 -90 58 -290 90 -359 26 -55 108 -174 192
-277 55 -68 185 -167 267 -205 90 -41 291 -86 409 -92 95 -5 119 -2 240 26 74
18 164 45 201 60 78 33 233 139 318 217 73 68 193 226 226 298 40 87 104 364
104 449 0 65 -55 271 -86 325 -51 88 -164 230 -222 279 -142 123 -155 129
-333 174 -149 37 -178 41 -314 44 -82 2 -161 1 -175 -1z"/>
</g>
</svg>
